<?xml version="1.0" encoding="UTF-8"?>
<!-- Generator: visioncortex VTracer 0.6.3 -->
<svg fill="#fff" version="1.1"  xmlns="http://www.w3.org/2000/svg" width="1280" height="1280">
<path d="M0 0 C2.06 0.86 4.12 1.71 6.19 2.56 C7.61 3.17 7.61 3.17 9.07 3.78 C13.32 5.55 17.63 7.18 21.93 8.82 C27.66 11.02 33.35 13.31 39.01 15.66 C46.14 18.62 53.27 21.53 60.55 24.11 C63.78 25.28 66.95 26.58 70.13 27.87 C72.37 28.75 74.61 29.59 76.87 30.41 C91.5 35.71 105.86 42.11 113 57 C113.32 57.65 113.63 58.3 113.96 58.97 C116.49 65.18 116.05 71.18 115.62 77.74 C115.63 81.14 115.63 81.14 118.28 82.82 C119.18 83.21 120.08 83.6 121 84 C121.92 84.51 121.92 84.51 122.85 85.03 C127.54 87.44 132.33 89.26 137.3 91 C139.66 91.87 141.87 92.85 144.12 93.94 C161.12 101.34 177.23 101.76 195.44 101.75 C200.37 101.75 205.31 101.79 210.24 101.83 C212.85 101.85 215.46 101.86 218.08 101.86 C224.17 101.88 229.97 102.16 236 103 C239.24 103.23 242.48 103.37 245.72 103.5 C247.08 103.56 247.08 103.56 248.46 103.62 C252.3 103.8 256.13 103.96 259.97 104.12 C262.78 104.25 265.6 104.37 268.41 104.5 C269.7 104.55 269.7 104.55 271.01 104.61 C275.73 104.82 280.32 105.29 285 106 C286.59 106.12 288.18 106.22 289.77 106.28 C290.6 106.32 291.42 106.36 292.27 106.39 C293.98 106.47 295.7 106.54 297.41 106.61 C298.64 106.66 298.64 106.66 299.89 106.72 C300.64 106.75 301.38 106.78 302.14 106.81 C304 107 304 107 306 108 C307.93 108.28 309.87 108.52 311.81 108.75 C325.25 110.6 338.56 113.93 351.41 118.3 C354.2 119.05 356.12 119.32 359 119 C361.31 117.36 361.31 117.36 363.4 115.05 C364.21 114.22 365.02 113.39 365.85 112.54 C366.68 111.66 367.52 110.78 368.38 109.88 C379.49 98.34 379.49 98.34 385 94 C385.66 94 386.32 94 387 94 C387 93.34 387 92.68 387 92 C391.95 87.95 397.33 85.2 403.07 82.42 C405.5 81.24 407.87 80.01 410.25 78.75 C414.04 76.87 417.88 75.88 422 75 C422.97 74.74 423.95 74.48 424.95 74.21 C441.71 70.03 461.54 70.51 478 76 C479.64 76.18 481.29 76.32 482.94 76.44 C490.38 77.07 497.79 78.06 505 80.06 C509.42 81.26 513.9 81.47 518.46 81.75 C521 82 521 82 523 83 C524.91 83.32 526.83 83.6 528.75 83.88 C536.44 85.15 540.74 87.21 545.7 93.18 C549.38 98.34 549.74 102.78 549 109 C547.22 115.04 543.4 119.76 538 123 C533.54 124.37 529.04 124.05 524.44 123.81 C523.61 123.77 522.78 123.73 521.93 123.69 C514.79 123.23 507.93 121.96 500.94 120.45 C495.79 119.34 490.78 118.56 485.51 118.21 C480.04 117.76 474.45 116.93 469.15 115.5 C461.88 113.62 454.67 113.6 447.19 113.56 C445.9 113.53 444.61 113.5 443.28 113.46 C432.29 113.4 423.33 115.96 414.5 122.69 C411.74 124.76 409.14 126.55 406 128 C406 128.66 406 129.32 406 130 C404.62 131.63 404.62 131.63 403 133 C402.34 133 401.68 133 401 133 C401 133.66 401 134.32 401 135 C399.62 136.63 399.62 136.63 398 138 C397.34 138 396.68 138 396 138 C396 138.66 396 139.32 396 140 C394.62 141.63 394.62 141.63 393 143 C392.34 143 391.68 143 391 143 C391 143.66 391 144.32 391 145 C389.62 146.63 389.62 146.63 388 148 C387.34 148 386.68 148 386 148 C386 148.66 386 149.32 386 150 C384.53 151.48 384.53 151.48 382.5 153.19 C381.77 153.81 381.04 154.43 380.29 155.07 C379.54 155.7 378.78 156.34 378 157 C372.7 161.57 367.63 166.22 362.81 171.31 C361 173 361 173 359 173 C358.67 173.99 358.34 174.98 358 176 C357.34 176 356.68 176 356 176 C356 176.66 356 177.32 356 178 C354.5 179.52 354.5 179.52 352.44 181.25 C351.71 181.86 350.99 182.48 350.24 183.11 C349.5 183.74 348.76 184.36 348 185 C347.33 185.59 346.67 186.18 345.98 186.79 C345.37 187.34 344.76 187.88 344.12 188.44 C343.57 188.93 343.02 189.42 342.45 189.93 C341 191 341 191 339 191 C339 191.66 339 192.32 339 193 C333.52 198 333.52 198 331 198 C331 198.66 331 199.32 331 200 C328.88 201.95 328.88 201.95 326.12 204.12 C324.77 205.21 324.77 205.21 323.38 206.32 C321 208 321 208 319 208 C318.67 208.99 318.34 209.98 318 211 C315.93 212.78 313.87 214.43 311.69 216.06 C311.11 216.51 310.52 216.96 309.92 217.42 C307.07 219.58 304.29 221.56 301 223 C301 223.66 301 224.32 301 225 C299.32 226.51 299.32 226.51 297.12 228.12 C296.41 228.66 295.69 229.2 294.95 229.76 C293 231 293 231 291 231 C291 231.66 291 232.32 291 233 C289.26 234.45 287.46 235.81 285.62 237.12 C284.63 237.85 283.63 238.57 282.6 239.32 C280 241 280 241 278 241 C278 241.66 278 242.32 278 243 C273.62 246 273.62 246 271 246 C271 246.66 271 247.32 271 248 C269.58 249.23 269.58 249.23 267.6 250.61 C266.51 251.37 266.51 251.37 265.41 252.14 C264.64 252.67 263.86 253.2 263.06 253.75 C262.29 254.29 261.51 254.83 260.71 255.38 C258.48 256.93 256.24 258.47 254 260 C252.99 260.7 251.98 261.4 250.94 262.12 C245.27 266 245.27 266 243 266 C243 266.66 243 267.32 243 268 C240.73 269.62 240.73 269.62 237.75 271.44 C233.66 273.94 233.66 273.94 229.77 276.72 C228 278 228 278 226 278 C225.08 280.77 224.84 282.57 224.81 285.44 C224.8 286.2 224.78 286.96 224.77 287.75 C225.03 290.33 225.55 291.84 227 294 C228.84 295.09 228.84 295.09 231 296 C232.66 297.12 234.31 298.27 235.94 299.44 C251.75 310.75 269.65 313.55 288.77 310.57 C303.19 307.75 316.6 302.65 329.32 295.36 C332 294 332 294 335 294 C335 293.34 335 292.68 335 292 C336.43 291.16 337.87 290.33 339.31 289.5 C340.11 289.04 340.91 288.57 341.74 288.09 C344 287 344 287 347 287 C347 286.34 347 285.68 347 285 C349.12 283.48 349.12 283.48 352 281.75 C356.36 279.07 360.44 276.25 364.44 273.07 C366 272 366 272 368 272 C368 271.34 368 270.68 368 270 C369.32 269.67 370.64 269.34 372 269 C372 268.34 372 267.68 372 267 C375.46 264 375.46 264 378 264 C378 263.34 378 262.68 378 262 C379.86 260.31 379.86 260.31 382.31 258.44 C383.51 257.51 383.51 257.51 384.74 256.56 C387 255 387 255 390 254 C390 253.34 390 252.68 390 252 C399.97 242.94 411.54 238.31 425.02 238.71 C433.61 239.54 440.73 242.46 448 247 C448 247.66 448 248.32 448 249 C448.54 249.21 449.08 249.43 449.64 249.64 C452.85 251.49 455.21 254.04 457.75 256.69 C463.49 262.54 469.24 268.14 476 272.81 C477.49 273.9 477.49 273.9 479 275 C479 275.66 479 276.32 479 277 C479.69 277.23 480.38 277.47 481.09 277.71 C484.61 279.27 487.55 281.4 490.62 283.69 C491.88 284.6 493.14 285.51 494.4 286.41 C495.02 286.86 495.63 287.3 496.27 287.76 C506.21 294.89 516.88 299.99 528 305 C529.61 305.73 529.61 305.73 531.26 306.47 C537.17 309.03 543.21 311.18 549.31 313.25 C550.07 313.51 550.82 313.77 551.6 314.03 C556.08 315.52 560.32 316.39 565 317 C565.33 317.33 565.66 317.66 566 318 C568.14 318.37 570.29 318.7 572.44 319 C578.78 319.89 578.78 319.89 581 321 C583.9 321.21 586.78 321.38 589.69 321.5 C595.19 321.74 600.54 322.19 606 323 C614.7 323.55 623.39 322.74 632.06 322.06 C633.17 321.98 634.28 321.89 635.42 321.8 C639.72 321.44 643.82 321.1 648 320 C655.66 319.33 661.57 319.64 668 324 C669.12 324.76 669.12 324.76 670.27 325.53 C674.26 328.38 674.26 328.38 676 330 C676 330.66 676 331.32 676 332 C676.99 332 677.98 332 679 332 C679 332.66 679 333.32 679 334 C680.32 334.33 681.64 334.66 683 335 C683 335.66 683 336.32 683 337 C683.98 337.31 683.98 337.31 684.99 337.62 C689.17 339.54 692.56 342.26 696.19 345.06 C697.62 346.16 699.05 347.25 700.48 348.35 C701.11 348.83 701.74 349.32 702.38 349.82 C704 351.07 704 351.07 706 352 C706 352.66 706 353.32 706 354 C706.78 354.31 707.57 354.62 708.38 354.94 C711 356 711 356 713 357 C713 357.66 713 358.32 713 359 C713.87 359.42 713.87 359.42 714.77 359.84 C716.91 360.95 718.79 362.17 720.76 363.57 C721.46 364.07 722.17 364.57 722.89 365.09 C723.63 365.62 724.37 366.14 725.12 366.69 C726.65 367.77 728.17 368.86 729.69 369.94 C730.43 370.47 731.16 370.99 731.92 371.53 C733.72 372.8 735.52 374.05 737.34 375.28 C738.24 375.89 739.14 376.5 740.06 377.12 C740.84 377.64 741.61 378.16 742.41 378.7 C743.2 379.34 743.2 379.34 744 380 C744 380.66 744 381.32 744 382 C744.66 382.21 745.32 382.42 746 382.63 C750.1 384.5 753.39 387.13 756.94 389.88 C758.32 390.94 759.7 392 761.09 393.05 C762.08 393.81 762.08 393.81 763.09 394.58 C764.85 395.89 766.65 397.08 768.5 398.26 C769.33 398.83 770.15 399.41 771 400 C771 400.66 771 401.32 771 402 C771.98 402.31 771.98 402.31 772.99 402.62 C777.17 404.54 780.56 407.26 784.19 410.06 C785.62 411.16 787.05 412.25 788.48 413.35 C789.11 413.83 789.74 414.32 790.38 414.82 C792 416.07 792 416.07 794 417 C794 417.66 794 418.32 794 419 C794.78 419.31 795.57 419.62 796.38 419.94 C799 421 799 421 801 422 C801 422.66 801 423.32 801 424 C801.88 424.41 801.88 424.41 802.77 424.84 C804.92 425.96 806.77 427.2 808.71 428.64 C809.4 429.13 810.09 429.63 810.79 430.13 C812.23 431.17 813.65 432.22 815.07 433.28 C818.93 436.11 818.93 436.11 823.47 437.17 C827.41 435.35 830.96 433.04 834.56 430.62 C835.32 430.13 836.07 429.63 836.85 429.12 C841.05 426.36 841.05 426.36 845.06 423.33 C847 422 847 422 850 422 C850 421.34 850 420.68 850 420 C851.71 418.77 851.71 418.77 854.09 417.39 C855.39 416.63 855.39 416.63 856.72 415.85 C857.64 415.32 858.55 414.79 859.5 414.25 C865.31 410.89 870.84 407.47 876.15 403.36 C878.97 401.29 881.93 399.68 885 398 C887.5 396.58 889.98 395.12 892.44 393.62 C893.07 393.26 893.71 392.9 894.37 392.53 C897.23 390.77 898.82 389.69 899.68 386.38 C898.68 381.4 896.76 376.96 894.75 372.31 C893.95 370.43 893.15 368.56 892.36 366.68 C891.97 365.75 891.57 364.82 891.17 363.86 C889.63 360.08 888.25 356.26 886.89 352.42 C886.06 350.16 885.13 347.99 884.12 345.81 C881.33 339.68 879.09 333.32 876.74 327 C873.14 317.25 873.14 317.25 869.06 307.69 C866.29 301.59 864.07 295.28 861.74 289 C858.16 279.27 858.16 279.27 854.06 269.75 C852.12 265.51 850.64 261.15 849.12 256.75 C846.88 250.22 844.32 244.04 841.3 237.83 C839.97 234.93 838.99 232.03 838 229 C837.1 226.7 836.18 224.41 835.25 222.12 C833.04 216.66 830.92 211.16 828.88 205.62 C827.36 201.53 825.83 197.47 824 193.5 C821.23 187.48 819.05 181.21 816.74 175 C813.14 165.25 813.14 165.25 809.06 155.69 C807.21 151.61 805.62 147.44 804.06 143.25 C803.81 142.57 803.55 141.88 803.29 141.18 C802.04 137.83 800.81 134.48 799.61 131.11 C798.97 129.36 798.97 129.36 798.31 127.56 C797.75 125.99 797.75 125.99 797.18 124.38 C796.79 123.59 796.4 122.81 796 122 C789.59 119.86 782.27 124.25 776.41 126.96 C772.67 128.57 768.81 129.76 764.95 131.01 C762.37 131.87 759.88 132.83 757.38 133.88 C751.68 136.22 745.84 138.09 739.98 139.98 C736.2 140.96 736.2 140.96 733 143 C731.42 143.22 731.42 143.22 729.81 143.44 C726.13 143.86 726.13 143.86 723.25 144.94 C712.86 148.34 702.31 148.36 691.5 148.31 C690.7 148.31 689.91 148.31 689.09 148.31 C676.28 148.29 663.28 148.09 651 144 C648.17 143.7 645.34 143.49 642.5 143.28 C640 143 640 143 638 142 C635.71 141.65 633.42 141.35 631.12 141.06 C629.76 140.89 628.4 140.71 627.04 140.53 C626.36 140.44 625.68 140.35 624.98 140.26 C606.94 137.88 606.94 137.88 600 130 C595.77 124.12 596.03 117.99 597 111 C599.49 105.4 603.67 101.89 609 99 C611.96 98.49 614.82 98.52 617.81 98.62 C618.62 98.64 619.42 98.65 620.25 98.67 C624.96 98.79 629.36 99.21 633.91 100.49 C637.46 101.35 641.08 101.5 644.71 101.75 C647 102 647 102 649 103 C651.48 103.37 653.95 103.7 656.44 104 C663.6 104.87 663.6 104.87 667 106 C689.08 109.1 710.23 108.84 731.09 100.16 C734.77 98.69 738.5 97.37 742.25 96.06 C742.98 95.81 743.71 95.55 744.46 95.29 C745.93 94.77 747.4 94.26 748.87 93.74 C762.09 89.26 762.09 89.26 775 84 C776.37 83.41 776.37 83.41 777.78 82.81 C778.51 82.21 779.24 81.62 780 81 C780.42 77.78 780.42 77.78 780 74.12 C779.54 63.63 782.52 55.41 789.5 47.44 C795.13 41.56 800.53 38.06 808 35 C808.8 34.67 809.6 34.34 810.42 34 C812.9 32.99 815.39 31.99 817.88 31 C818.75 30.65 819.63 30.3 820.53 29.94 C825.89 27.81 831.28 25.78 836.72 23.85 C838.93 23.03 841.05 22.11 843.19 21.12 C849.32 18.33 855.68 16.09 862 13.74 C871.75 10.14 871.75 10.14 881.31 6.06 C886.14 3.86 891.09 2.04 896.07 0.22 C899.79 -1.13 903.31 -2.63 906.88 -4.38 C915.48 -7.85 927.31 -7.51 935.88 -4.12 C937.27 -3.45 938.64 -2.75 940 -2 C941.33 -1.33 942.67 -0.66 944 0 C944 0.66 944 1.32 944 2 C944.75 2.25 945.51 2.5 946.28 2.75 C955.05 6.77 958.9 18.37 962.05 26.83 C962.72 28.68 963.39 30.54 964.04 32.4 C964.9 34.72 965.84 36.94 966.88 39.19 C969.67 45.32 971.91 51.68 974.26 58 C977.84 67.73 977.84 67.73 981.94 77.25 C983.88 81.49 985.36 85.85 986.88 90.25 C989.12 96.78 991.68 102.96 994.7 109.17 C996.03 112.07 997.01 114.97 998 118 C998.92 120.36 999.86 122.71 1000.81 125.06 C1001.34 126.39 1001.87 127.72 1002.4 129.05 C1003.41 131.55 1004.44 134.03 1005.5 136.52 C1008.53 143.79 1010.77 150.39 1008.31 158.17 C1007.5 160.13 1007.5 160.13 1006 163 C1005.34 163 1004.68 163 1004 163 C1003.67 163.99 1003.34 164.98 1003 166 C1002.34 166 1001.68 166 1001 166 C1001 166.66 1001 167.32 1001 168 C995.32 170.96 990.4 172.03 984 171 C977.39 168.64 973.5 164.99 970 159 C968.79 156.24 967.84 153.43 966.94 150.56 C965.27 145.41 963.4 140.65 960.91 135.84 C959.66 133.31 958.86 130.69 958 128 C956.75 124.76 955.43 121.54 954.12 118.31 C951.58 112.01 949.12 105.69 946.85 99.28 C946.03 97.09 945.11 94.99 944.12 92.88 C942.16 88.59 940.65 84.2 939.12 79.75 C936.88 73.22 934.32 67.04 931.3 60.83 C929.97 57.93 928.99 55.03 928 52 C926.73 48.75 925.38 45.52 924.04 42.3 C922.84 39.37 922 37.2 922 34 C902.49 41.06 902.49 41.06 883.38 49.06 C877.39 51.81 871.17 53.97 865 56.26 C855.25 59.86 855.25 59.86 845.69 63.94 C841.42 65.88 837.07 67.54 832.69 69.19 C831.99 69.45 831.3 69.71 830.58 69.98 C827.42 71.16 824.3 72.29 821 73 C824.19 82.93 827.59 92.97 832 102.44 C833.93 106.61 835.39 110.91 836.88 115.25 C839.12 121.78 841.68 127.96 844.7 134.17 C846.03 137.07 847.01 139.97 848 143 C848.9 145.3 849.82 147.59 850.75 149.88 C852.96 155.34 855.08 160.84 857.12 166.38 C858.63 170.45 860.16 174.49 862 178.44 C863.93 182.61 865.39 186.91 866.88 191.25 C869.12 197.78 871.68 203.96 874.7 210.17 C876.03 213.07 877.01 215.97 878 219 C878.9 221.3 879.82 223.59 880.75 225.88 C882.93 231.27 885.03 236.68 887.06 242.12 C887.31 242.79 887.56 243.46 887.81 244.14 C888.31 245.46 888.8 246.78 889.29 248.1 C892.88 257.8 892.88 257.8 896.94 267.31 C899.71 273.41 901.93 279.72 904.26 286 C907.86 295.75 907.86 295.75 911.94 305.31 C914.71 311.41 916.93 317.72 919.26 324 C922.86 333.75 922.86 333.75 926.94 343.31 C929.71 349.41 931.93 355.72 934.26 362 C936.99 369.35 939.77 376.65 943.02 383.79 C944.8 387.81 946.39 391.91 948 396 C953.32 395.36 957.88 393.66 962.81 391.69 C963.62 391.37 964.43 391.05 965.26 390.72 C969.77 388.93 974.21 387.05 978.62 385.02 C983.99 382.72 989.52 380.77 995 378.74 C1004.75 375.14 1004.75 375.14 1014.31 371.06 C1019.13 368.87 1024.08 367.06 1029.04 365.22 C1033.77 363.48 1038.44 361.63 1043.08 359.66 C1045 359 1045 359 1048 359 C1046.83 352.64 1044.93 347.11 1042.36 341.18 C1040.97 337.92 1039.69 334.63 1038.44 331.31 C1037.07 327.72 1035.67 324.18 1034.06 320.69 C1031.29 314.59 1029.07 308.28 1026.74 302 C1023.14 292.25 1023.14 292.25 1019.06 282.69 C1016.29 276.59 1014.07 270.28 1011.74 264 C1010.63 261.02 1009.51 258.04 1008.38 255.06 C1007.98 254.01 1007.58 252.96 1007.17 251.88 C1006.14 249.34 1004.96 246.99 1003.69 244.56 C1001.04 238.74 1001.19 232.25 1002 226 C1004.39 220.09 1007.54 217.1 1013 214 C1018.63 211.64 1023.2 211.65 1028.86 213.88 C1035.13 217.16 1039.62 221.76 1041.83 228.55 C1043.34 233 1045.11 237.33 1046.88 241.69 C1049.42 247.99 1051.87 254.29 1054.14 260.7 C1055.01 263.04 1056.01 265.29 1057.06 267.56 C1058.5 270.69 1059.57 273.76 1060.5 277.06 C1061.61 280.96 1063.07 284.31 1064.96 287.88 C1066.61 291.24 1067.77 294.77 1069.01 298.3 C1069.87 300.64 1070.82 302.87 1071.88 305.12 C1073.84 309.41 1075.35 313.8 1076.88 318.25 C1079.12 324.78 1081.68 330.96 1084.7 337.17 C1087.91 344.18 1088.4 350.11 1088.44 357.75 C1088.47 358.78 1088.5 359.82 1088.54 360.88 C1088.6 369.8 1085.88 375.68 1081 383 C1080.34 383 1079.68 383 1079 383 C1078.67 383.99 1078.34 384.98 1078 386 C1077.34 386 1076.68 386 1076 386 C1076 386.66 1076 387.32 1076 388 C1068.06 394.53 1058.72 397.86 1049.03 400.97 C1044.96 402.35 1041.03 404.02 1037.08 405.71 C1033.85 407.06 1030.59 408.32 1027.31 409.56 C1023.72 410.93 1020.18 412.33 1016.69 413.94 C1010.59 416.71 1004.28 418.93 998 421.26 C988.16 424.9 988.16 424.9 978.5 429 C964.31 435.43 950.09 441.29 934.55 436.12 C930.58 434.37 927.04 432.06 923.45 429.62 C921.34 428.23 919.28 427.07 917 426 C916.01 426.66 915.02 427.32 914 428 C913.01 428 912.02 428 911 428 C911 428.66 911 429.32 911 430 C909.24 431.27 909.24 431.27 906.8 432.68 C905.92 433.2 905.04 433.71 904.13 434.25 C903.2 434.78 902.27 435.32 901.31 435.88 C894.45 439.79 894.45 439.79 888.04 444.38 C886 446 886 446 883 446 C883 446.66 883 447.32 883 448 C881.6 449.08 881.6 449.08 879.62 450.25 C878.89 450.69 878.16 451.13 877.41 451.58 C876.61 452.05 875.82 452.52 875 453 C873.36 453.99 871.71 454.98 870.07 455.97 C869.23 456.47 868.39 456.97 867.52 457.49 C863.65 459.81 859.79 462.14 855.94 464.5 C854.91 465.11 854.91 465.11 853.87 465.74 C849.96 468.03 849.96 468.03 848 472 C848.71 473.68 849.42 475.36 850.19 477.02 C858.01 496.02 852.96 516.75 846 535 C845.34 535 844.68 535 844 535 C843.9 535.72 843.81 536.44 843.71 537.18 C842.89 540.43 841.59 542.41 839.62 545.12 C839.02 545.97 838.41 546.82 837.79 547.7 C836.28 549.64 834.87 551.4 833 553 C832.34 553 831.68 553 831 553 C830.67 553.99 830.34 554.98 830 556 C829.34 556 828.68 556 828 556 C828 556.66 828 557.32 828 558 C825.7 559.95 825.7 559.95 822.69 562.12 C821.7 562.85 820.72 563.57 819.7 564.32 C817 566 817 566 814 566 C814 566.66 814 567.32 814 568 C812.42 568.79 810.84 569.55 809.25 570.31 C808.37 570.74 807.49 571.17 806.58 571.61 C796.73 575.43 787.58 576.44 777.06 576.25 C775.27 576.24 775.27 576.24 773.45 576.23 C768.49 576.19 763.85 576.11 759 575 C759.09 576.36 759.09 576.36 759.19 577.75 C759.06 590.35 752.87 602.69 746 613 C745.34 613 744.68 613 744 613 C743.74 613.58 743.48 614.15 743.21 614.75 C741.91 617.16 740.44 619.01 738.62 621.06 C737.75 622.07 737.75 622.07 736.85 623.1 C735.01 624.99 733.2 626.55 731 628 C730.34 628 729.68 628 729 628 C729 628.66 729 629.32 729 630 C723.2 634.24 716.63 637.29 710 640 C709.37 640.29 708.73 640.58 708.08 640.88 C696.75 645.74 683.08 644.11 671 644 C670.83 645.18 670.66 646.37 670.48 647.59 C669.19 656.18 667.85 664.13 664 672 C663.73 672.64 663.45 673.29 663.17 673.95 C658.87 683.57 651.32 693.5 643 700 C640.77 700.71 640.77 700.71 639 701 C639 701.66 639 702.32 639 703 C638.01 703 637.02 703 636 703 C636 703.66 636 704.32 636 705 C632 707 628 709 624 711 C622.98 711.54 622.98 711.54 621.93 712.09 C606.83 719.17 584.52 718.19 569 713 C568.89 713.61 568.78 714.21 568.67 714.84 C566.18 728 561.96 740.66 553 751 C552.34 751 551.68 751 551 751 C550.79 751.54 550.59 752.07 550.38 752.62 C548.47 755.92 545.95 758.59 543 761 C542.34 761 541.68 761 541 761 C541 761.66 541 762.32 541 763 C533.05 768.89 524.38 772.92 515 776 C514.01 776.36 513.01 776.73 511.99 777.11 C492.36 782.55 470.28 777.76 453 768 C453 767.34 453 766.68 453 766 C452.32 765.76 451.63 765.53 450.93 765.28 C447.39 763.73 444.33 761.7 441.19 759.5 C440.59 759.1 439.99 758.69 439.38 758.28 C437.88 757.24 436.43 756.13 435 755 C435 754.34 435 753.68 435 753 C434.27 752.73 433.55 752.47 432.8 752.2 C430 751 427.7 749.6 425.19 747.88 C424.4 747.34 423.61 746.8 422.79 746.24 C421.91 745.63 421.91 745.63 421 745 C420.32 745.74 420.32 745.74 419.62 746.5 C418 748 418 748 416 748 C415.73 748.58 415.46 749.15 415.19 749.75 C413.97 752.06 412.7 754.02 411 756 C410.34 756 409.68 756 409 756 C408.73 756.58 408.46 757.17 408.18 757.77 C400.54 772.21 383.89 780.26 369 785 C348.76 789.63 329.81 785.17 312.5 774.57 C311.68 774.05 310.85 773.54 310 773 C310 772.34 310 771.68 310 771 C309.14 770.63 309.14 770.63 308.27 770.25 C296.45 763.76 289.08 749.31 285 737 C283.83 732.36 282.86 727.71 282 723 C280.27 723.09 280.27 723.09 278.5 723.19 C261.96 723.14 247.45 717.34 234 708 C233.24 707.48 232.47 706.95 231.69 706.41 C231.13 705.95 230.57 705.48 230 705 C230 704.34 230 703.68 230 703 C229.36 702.73 228.72 702.46 228.06 702.19 C226 701 226 701 225 698 C224.34 698 223.68 698 223 698 C214.08 686.71 207 672.68 207 658 C205.83 658.03 204.66 658.07 203.45 658.11 C182.67 658.55 167.19 652.12 151.83 638.01 C148.36 634.67 148.36 634.67 147 633 C147 632.34 147 631.68 147 631 C146.34 631 145.68 631 145 631 C145 630.01 145 629.02 145 628 C144.34 628 143.68 628 143 628 C136.54 616.77 131.23 606.33 132 593 C130.78 593.19 129.57 593.37 128.31 593.56 C110.72 595.4 96.01 589.15 81.66 579.41 C81.11 578.95 80.57 578.48 80 578 C80 577.34 80 576.68 80 576 C79.01 575.67 78.02 575.34 77 575 C77 574.34 77 573.68 77 573 C76.34 573 75.68 573 75 573 C75 572.34 75 571.68 75 571 C74.01 570.67 73.02 570.34 72 570 C70.81 567.44 70.81 567.44 70 565 C69.34 565 68.68 565 68 565 C57.3 545.94 52.75 527.92 58 506 C59.54 501 61.09 496.36 64 492 C64.19 489.52 64.19 489.52 63 487 C60.83 485.14 58.82 483.65 56.44 482.12 C55.74 481.66 55.04 481.2 54.32 480.72 C45.95 475.2 37.4 469.95 28.88 464.66 C19.43 458.8 10.09 452.77 0.88 446.56 C-2.07 444.58 -5.08 442.79 -8.18 441.07 C-10.38 439.78 -12.46 438.37 -14.56 436.94 C-20.69 432.51 -20.69 432.51 -27.88 431.06 C-31.13 432.04 -33.9 433.34 -36.88 434.96 C-46.37 439.59 -55.9 439.1 -65.75 435.75 C-70.55 434.05 -75.23 432.12 -79.84 429.96 C-82.29 428.87 -84.78 427.96 -87.31 427.06 C-92.2 425.32 -96.98 423.37 -101.76 421.36 C-110.59 417.66 -119.47 414.15 -128.48 410.92 C-134.06 408.89 -139.54 406.61 -145.02 404.33 C-146.1 403.88 -146.1 403.88 -147.2 403.43 C-148.69 402.81 -150.19 402.19 -151.68 401.57 C-155.71 399.9 -159.74 398.38 -163.88 397 C-169.74 394.93 -175.11 391.84 -180 388 C-180 387.34 -180 386.68 -180 386 C-180.99 385.67 -181.98 385.34 -183 385 C-183 384.34 -183 383.68 -183 383 C-183.66 383 -184.32 383 -185 383 C-186.22 381.43 -186.22 381.43 -187.5 379.31 C-187.92 378.63 -188.35 377.94 -188.78 377.24 C-192.26 370.86 -192.37 365.46 -192.38 358.31 C-192.4 357.27 -192.42 356.24 -192.45 355.17 C-192.48 347.88 -191.09 342.55 -188 336 C-187.4 334.57 -186.8 333.13 -186.22 331.69 C-185.94 331.01 -185.65 330.33 -185.36 329.64 C-182.72 323.29 -180.19 316.93 -177.89 310.46 C-176.37 306.26 -174.68 302.14 -173 298 C-172 295.5 -171 293 -170 290.5 C-167.26 283.63 -167.26 283.63 -165.94 280.38 C-163.89 275.33 -161.96 270.23 -160.06 265.12 C-157.91 259.34 -155.63 253.62 -153.22 247.93 C-151.45 243.68 -149.82 239.37 -148.18 235.07 C-145.98 229.34 -143.69 223.65 -141.34 217.99 C-138.37 210.85 -135.47 203.73 -132.88 196.45 C-130.88 190.89 -128.6 185.44 -126.33 179.98 C-123.37 172.85 -120.47 165.73 -117.88 158.45 C-115.88 152.89 -113.6 147.44 -111.33 141.98 C-108.37 134.85 -105.47 127.73 -102.88 120.45 C-100.88 114.89 -98.6 109.44 -96.33 103.98 C-93.37 96.85 -90.47 89.73 -87.88 82.45 C-85.88 76.89 -83.6 71.44 -81.33 65.98 C-78.37 58.85 -75.47 51.73 -72.89 44.46 C-71.71 41.2 -70.43 38 -69.12 34.79 C-68.27 32.68 -67.46 30.56 -66.66 28.43 C-62.91 18.49 -58.97 8.33 -50 2 C-49.34 2 -48.68 2 -48 2 C-48 1.34 -48 0.68 -48 0 C-33.46 -10.79 -15.15 -6.8 0 0 Z M-26 34 C-26.46 35.18 -26.92 36.37 -27.39 37.59 C-34.98 57.15 -34.98 57.15 -38.66 65.99 C-41.62 73.13 -44.52 80.26 -47.12 87.55 C-49.12 93.11 -51.4 98.56 -53.67 104.02 C-56.63 111.15 -59.53 118.27 -62.12 125.55 C-64.1 131.04 -66.34 136.43 -68.6 141.81 C-71.95 149.83 -75.12 157.86 -77.87 166.12 C-79.03 169.54 -80.33 172.75 -81.99 175.96 C-84.08 180.02 -85.57 184.17 -87 188.5 C-88.69 193.6 -90.57 198.38 -93.09 203.14 C-94.41 205.83 -95.26 208.62 -96.16 211.47 C-99.2 220.64 -103 229.56 -106.6 238.52 C-107.72 241.3 -108.83 244.09 -109.94 246.88 C-111.16 249.93 -112.4 252.97 -113.66 256 C-116.62 263.14 -119.53 270.27 -122.12 277.55 C-124.1 283.04 -126.34 288.43 -128.6 293.81 C-131.95 301.83 -135.12 309.86 -137.87 318.12 C-139.03 321.54 -140.33 324.75 -141.98 327.96 C-144.08 332.03 -145.6 336.18 -147.06 340.5 C-147.55 341.93 -148.04 343.35 -148.54 344.78 C-148.77 345.47 -149.01 346.17 -149.25 346.88 C-150.03 349.08 -150.89 351.24 -151.75 353.41 C-152.16 354.59 -152.57 355.78 -153 357 C-151.41 360.18 -148.19 360.81 -145 362 C-143.71 362.42 -142.42 362.84 -141.12 363.25 C-135.75 364.99 -130.59 367.2 -125.38 369.38 C-120.44 371.43 -115.48 373.33 -110.45 375.12 C-104.89 377.12 -99.44 379.4 -93.98 381.67 C-86.87 384.62 -79.76 387.52 -72.5 390.1 C-61.65 394.01 -61.65 394.01 -58.03 396.18 C-55.22 397.31 -53.8 397.11 -51 396 C-49.47 393.7 -49.47 393.7 -48.5 390.75 C-48.09 389.66 -47.68 388.57 -47.25 387.45 C-46.84 386.31 -46.43 385.17 -46 384 C-45.17 381.83 -44.34 379.67 -43.5 377.5 C-43.09 376.41 -42.67 375.33 -42.25 374.21 C-40.68 370.17 -39 366.17 -37.32 362.17 C-33.65 353.36 -30.14 344.51 -26.92 335.53 C-25.38 331.31 -23.68 327.16 -22 323 C-21 320.5 -20 318 -19 315.5 C-16.26 308.63 -16.26 308.63 -14.94 305.38 C-12.89 300.33 -10.96 295.23 -9.06 290.12 C-6.11 282.19 -2.91 274.38 0.47 266.62 C2 262.99 3.4 259.32 4.75 255.62 C6.92 249.76 9.22 243.96 11.62 238.19 C13.93 232.65 16.11 227.1 18.12 221.45 C20.12 215.89 22.4 210.44 24.67 204.98 C27.63 197.85 30.53 190.73 33.12 183.45 C35.12 177.89 37.4 172.44 39.67 166.98 C42.63 159.85 45.53 152.73 48.11 145.46 C49.29 142.21 50.57 139.01 51.86 135.81 C53.77 131.09 55.65 126.35 57.54 121.61 C59.44 116.91 61.44 112.26 63.5 107.62 C64.54 105.1 65.43 102.71 66.25 100.12 C67.27 96.95 68.45 93.89 69.75 90.82 C70.06 90.07 70.38 89.32 70.71 88.55 C71.35 87.04 72 85.53 72.66 84.03 C74.29 80.21 75.44 77.24 75 73 C69.66 70.18 64.43 67.68 58.67 65.87 C48.26 62.47 38.06 58.31 28 54 C26.99 53.57 26.99 53.57 25.95 53.13 C23.17 51.94 20.39 50.73 17.62 49.5 C15.1 48.46 12.71 47.57 10.12 46.75 C5.52 45.26 1.09 43.42 -3.38 41.56 C-14.36 36.32 -14.36 36.32 -26 34 Z M101 120 C98.24 123.93 96.49 128.32 94.69 132.75 C94.38 133.49 94.08 134.23 93.77 134.99 C91.35 140.96 89.16 147 87.13 153.11 C85.97 156.54 84.67 159.75 83.01 162.97 C80.93 167.01 79.44 171.13 78 175.44 C76.19 180.72 74.29 185.85 71.93 190.91 C70.85 193.34 69.95 195.81 69.06 198.31 C67.32 203.2 65.37 207.98 63.36 212.76 C59.66 221.58 56.15 230.47 52.92 239.47 C51.38 243.69 49.68 247.84 48 252 C47 254.5 46 257 45 259.5 C42.26 266.37 42.26 266.37 40.94 269.62 C38.89 274.67 36.96 279.77 35.06 284.88 C32.11 292.81 28.91 300.62 25.53 308.38 C24 312.01 22.6 315.68 21.25 319.38 C19.08 325.24 16.78 331.04 14.38 336.81 C12.07 342.35 9.89 347.9 7.88 353.55 C5.87 359.14 3.58 364.61 1.3 370.09 C-4.76 381.82 -4.76 381.82 -6.5 393.93 C-4.26 397.03 -1.2 398.78 2 400.75 C2.64 401.16 3.28 401.57 3.95 402 C7.22 404.25 7.22 404.25 11 405 C11 405.66 11 406.32 11 407 C11.97 407.54 12.94 408.07 13.94 408.62 C16.88 410.3 19.7 412.1 22.5 414 C25.66 416.13 28.84 418.08 32.17 419.92 C35.22 421.72 38.09 423.79 40.98 425.83 C43.04 427.25 43.04 427.25 46 427 C46 427.66 46 428.32 46 429 C48.91 431.04 50.4 432 54 432 C54 432.66 54 433.32 54 434 C54.95 434.53 55.9 435.06 56.88 435.6 C61.68 438.35 66.3 441.36 70.94 444.38 C71.79 444.93 72.65 445.48 73.53 446.05 C78.31 449.15 82.85 452.35 87.21 456.02 C88.98 457.21 88.98 457.21 91.15 456.79 C93.2 456.13 93.2 456.13 94.25 453.94 C94.5 453.3 94.75 452.66 95 452 C95.66 452 96.32 452 97 452 C98.56 450.31 100.05 448.54 101.5 446.75 C102.29 445.78 103.09 444.8 103.91 443.8 C105.59 441.55 106.88 439.55 108 437 C108.66 437 109.32 437 110 437 C112.04 434.83 112.04 434.83 114.12 432.12 C114.85 431.22 115.57 430.32 116.32 429.38 C118.19 427.21 118.19 427.21 118 425 C118.66 425 119.32 425 120 425 C120.72 424.05 121.44 423.1 122.19 422.12 C131.37 411.14 146.57 403.72 160.62 402.19 C162.42 402.1 164.21 402.03 166 402 C166.99 401.97 167.98 401.95 169 401.92 C172 401.88 174.99 401.91 178 402 C178.82 402.02 179.64 402.03 180.49 402.05 C189.14 402.55 198.04 405.35 205.23 410.17 C207.86 412.28 207.86 412.28 211 412 C211 412.66 211 413.32 211 414 C212.49 415.24 212.49 415.24 214.44 416.5 C228.79 427 235.4 441.41 240 458 C240.38 459.33 240.76 460.65 241.14 461.98 C241.42 462.98 241.71 463.97 242 465 C242.97 465.05 243.93 465.1 244.93 465.15 C258.3 465.92 271.23 467.41 282.56 475.31 C284.92 477.28 284.92 477.28 288 477 C288 477.66 288 478.32 288 479 C290.64 481.4 290.64 481.4 294 482 C294 482.66 294 483.32 294 484 C294.66 484 295.32 484 296 484 C296.33 484.99 296.66 485.98 297 487 C297.66 487 298.32 487 299 487 C299 487.66 299 488.32 299 489 C299.66 489 300.32 489 301 489 C301.26 489.55 301.52 490.1 301.79 490.66 C303.17 493.33 304.74 495.83 306.31 498.38 C311.89 507.92 315.72 517.87 316 529 C317.08 529.04 318.15 529.07 319.26 529.11 C342.28 530.07 359.12 537.01 375.62 553.36 C377.11 555.13 378.05 556.9 379 559 C379.66 559 380.32 559 381 559 C381.1 559.56 381.21 560.11 381.31 560.69 C382.14 563.46 383.51 565.53 385 568 C388.2 575.05 390.19 581.11 390.66 588.83 C390.81 591.21 390.81 591.21 393 593 C394.95 593.41 394.95 593.41 397.18 593.53 C398.02 593.6 398.86 593.66 399.73 593.73 C400.62 593.8 401.52 593.87 402.44 593.94 C418.7 595.41 431.37 599.95 444.06 610.56 C444.6 611.01 445.13 611.46 445.69 611.92 C448.29 614.18 450.4 616.44 452.25 619.34 C452.82 620.22 453.4 621.1 454 622 C454.66 622 455.32 622 456 622 C456.1 622.54 456.21 623.08 456.32 623.63 C457.18 626.62 458.51 629.18 459.94 631.94 C468.63 648.83 469.23 666.71 464.07 684.88 C463 688 463 688 461 691 C461 692.32 461 693.64 461 695 C460.34 695 459.68 695 459 695 C456.96 697.91 456 699.4 456 703 C455.34 703 454.68 703 454 703 C452.18 705.25 452.18 705.25 450.38 708 C449.74 708.93 449.11 709.86 448.46 710.81 C447.98 711.53 447.5 712.26 447 713 C448.29 714.38 449.63 715.71 451 717 C451.66 717 452.32 717 453 717 C453 717.66 453 718.32 453 719 C454.5 720.35 454.5 720.35 456.47 721.68 C457.21 722.2 457.94 722.71 458.7 723.25 C459.48 723.78 460.26 724.32 461.06 724.88 C461.81 725.4 462.57 725.93 463.34 726.48 C467.78 729.58 472.27 732.37 477 735 C477.99 735.66 478.98 736.32 480 737 C489.66 740.11 498.64 739.96 508 736 C508.67 735.76 509.33 735.51 510.02 735.26 C518.69 731.65 524.44 724.14 528.06 715.69 C531.43 705.69 531.27 696.45 526.84 686.81 C523.56 681.79 519.03 678.2 514 675 C513.34 675 512.68 675 512 675 C512 674.34 512 673.68 512 673 C510.41 671.7 508.75 670.49 507.06 669.31 C502.51 666.09 498.11 662.76 493.78 659.25 C492.09 657.81 492.09 657.81 490 658 C490 657.34 490 656.68 490 656 C488.6 654.89 487.15 653.83 485.69 652.81 C481.47 649.59 479.34 647.28 478 642 C477.12 635 478.09 630.81 482 625 C482.33 624.01 482.66 623.02 483 622 C485.25 620.94 485.25 620.94 488 620 C488.76 619.63 489.53 619.26 490.31 618.88 C494.79 617.42 498.85 617.13 503.22 618.9 C504.61 619.61 505.98 620.35 507.34 621.12 C508.98 622.16 508.98 622.16 511 622 C511 622.66 511 623.32 511 624 C512.71 625.59 512.71 625.59 514.88 627.12 C515.59 627.66 516.31 628.2 517.05 628.76 C518.9 630.18 518.9 630.18 521 630 C521 630.66 521 631.32 521 632 C522.74 633.45 524.54 634.81 526.38 636.12 C527.37 636.85 528.37 637.57 529.4 638.32 C531.76 640.18 531.76 640.18 534 640 C534 640.66 534 641.32 534 642 C535.83 643.57 535.83 643.57 538.31 645.25 C539.31 645.96 540.31 646.66 541.33 647.39 C541.91 647.8 542.48 648.2 543.07 648.62 C546.07 650.77 549.04 652.97 552.01 655.16 C553.68 656.39 555.34 657.62 557.01 658.84 C563.89 663.89 563.89 663.89 567.21 666.5 C577.07 674.12 587.39 678.57 600 677 C606.56 675.75 612.85 673.36 618 669 C618 668.34 618 667.68 618 667 C618.56 666.81 619.11 666.63 619.69 666.44 C625.43 662.87 628.25 656.33 630 650 C630.44 646.86 630.52 643.79 630.5 640.62 C630.5 639.79 630.49 638.96 630.49 638.1 C630.26 629.98 628 624.6 622.81 618.38 C618.61 614.83 614.34 611.39 610 608 C609.16 607.34 609.16 607.34 608.3 606.66 C606.54 605.27 604.77 603.88 603 602.5 C602.44 602.05 601.87 601.61 601.29 601.15 C598.48 598.74 598.48 598.74 595 598 C595 597.34 595 596.68 595 596 C593.26 594.55 591.46 593.19 589.62 591.88 C588.63 591.15 587.63 590.43 586.6 589.68 C584.24 587.82 584.24 587.82 582 588 C582 587.34 582 586.68 582 586 C580.68 585.67 579.36 585.34 578 585 C578 584.34 578 583.68 578 583 C576.31 581.6 574.54 580.28 572.75 579 C571.78 578.3 570.8 577.6 569.8 576.88 C567.15 575.01 567.15 575.01 564.71 573.86 C562.34 572.67 561.95 571.45 561 569 C560.63 568.11 560.26 567.23 559.88 566.31 C558.04 559.38 558.43 554.06 561.83 547.73 C564.66 543.54 568.14 541.35 573 540 C579.94 539.05 585.22 540.06 591 544 C593.68 546.08 596.31 548.2 598.9 550.39 C600.82 552.2 600.82 552.2 603 552 C603 552.66 603 553.32 603 554 C604.74 555.45 606.54 556.81 608.38 558.12 C609.37 558.85 610.37 559.57 611.4 560.32 C613.76 562.18 613.76 562.18 616 562 C616 562.66 616 563.32 616 564 C617.71 565.59 617.71 565.59 619.88 567.12 C620.59 567.66 621.31 568.2 622.05 568.76 C623.9 570.18 623.9 570.18 626 570 C626 570.66 626 571.32 626 572 C626.99 572 627.98 572 629 572 C629 572.66 629 573.32 629 574 C630.89 575.45 630.89 575.45 633.25 576.88 C635.7 578.41 637.82 579.81 639.86 581.87 C642.68 584.68 645.82 586.89 649.06 589.19 C649.69 589.64 650.31 590.09 650.96 590.55 C653.62 592.45 655.88 593.96 659 595 C659 595.66 659 596.32 659 597 C660.37 597.8 661.75 598.59 663.12 599.38 C663.89 599.82 664.66 600.26 665.45 600.71 C671.46 603.75 676.68 604.39 683.31 604.38 C684.58 604.37 684.58 604.37 685.88 604.37 C692.02 604.26 696.77 603.39 702 600 C703.52 599.2 703.52 599.2 705.06 598.38 C705.7 597.92 706.34 597.47 707 597 C707 596.34 707 595.68 707 595 C707.99 594.67 708.98 594.34 710 594 C710 593.34 710 592.68 710 592 C710.66 592 711.32 592 712 592 C718.12 584.95 720.72 574.87 720.42 565.68 C718.49 553.38 712.56 545.82 702.88 538.69 C702.15 538.14 701.42 537.59 700.67 537.02 C697.18 534.07 697.18 534.07 693 533 C693 532.34 693 531.68 693 531 C691.24 529.54 689.41 528.16 687.56 526.81 C686.46 526.01 685.36 525.2 684.26 524.4 C683.71 524 683.16 523.6 682.6 523.18 C679.58 520.95 676.66 518.57 673.74 516.21 C672.08 514.81 672.08 514.81 670 515 C670 514.34 670 513.68 670 513 C668.26 511.55 666.46 510.19 664.62 508.88 C663.63 508.15 662.63 507.43 661.6 506.68 C659.24 504.82 659.24 504.82 657 505 C657 504.34 657 503.68 657 503 C655.24 501.6 653.41 500.28 651.56 499 C646.1 495.21 646.1 495.21 645 493 C644.34 493 643.68 493 643 493 C640.43 487.22 640.27 481.21 641 475 C642.08 472.56 643.26 471.06 645 469 C645 468.34 645 467.68 645 467 C646.33 466.33 647.67 465.67 649 465 C649.85 464.49 649.85 464.49 650.72 463.96 C655.81 461.82 661.63 462.3 667 463 C669.75 464.28 671.88 465.69 674.23 467.59 C676.05 469.21 676.05 469.21 679 470 C679 470.66 679 471.32 679 472 C680.59 473.3 682.25 474.51 683.94 475.69 C688.49 478.91 692.89 482.24 697.22 485.75 C698.91 487.19 698.91 487.19 701 487 C701 487.66 701 488.32 701 489 C702.74 490.45 704.54 491.81 706.38 493.12 C707.37 493.85 708.37 494.57 709.4 495.32 C711.76 497.18 711.76 497.18 714 497 C714 497.66 714 498.32 714 499 C715.34 499.93 716.69 500.85 718.07 501.71 C721.22 503.81 724.11 506.23 727.05 508.61 C728.87 510.19 728.87 510.19 731 510 C731 510.66 731 511.32 731 512 C732.56 513.4 732.56 513.4 734.61 514.79 C735.37 515.32 736.12 515.85 736.9 516.39 C737.69 516.94 738.49 517.49 739.31 518.06 C740.1 518.62 740.88 519.17 741.69 519.74 C746.09 522.85 746.09 522.85 751 525 C751 525.66 751 526.32 751 527 C759.63 533.81 768.93 537.69 779.97 537.44 C785.93 536.58 791.45 534.27 797 532 C797 531.34 797 530.68 797 530 C797.57 529.76 798.13 529.53 798.71 529.28 C804.68 525.94 809.84 519.71 812.06 513.25 C814.57 502.42 814.05 490.86 808.35 481.2 C805.11 475.95 805.11 475.95 800 473 C800 472.34 800 471.68 800 471 C798.26 469.55 796.46 468.19 794.62 466.88 C793.63 466.15 792.63 465.43 791.6 464.68 C789.24 462.82 789.24 462.82 787 463 C787 462.34 787 461.68 787 461 C783.78 458.68 783.78 458.68 780 458 C780 457.34 780 456.68 780 456 C778.58 454.73 778.58 454.73 776.7 453.5 C776 453.01 775.29 452.52 774.57 452.02 C773.8 451.5 773.04 450.97 772.25 450.44 C770.67 449.34 769.09 448.24 767.51 447.14 C766.34 446.34 766.34 446.34 765.15 445.51 C761.47 442.93 757.89 440.21 754.3 437.49 C749.19 433.62 744.01 429.84 738.85 426.05 C738.08 425.48 737.31 424.92 736.52 424.33 C735.76 423.78 735.01 423.23 734.24 422.66 C732.72 421.54 731.21 420.39 729.71 419.24 C729 418.69 728.28 418.14 727.55 417.57 C726.91 417.08 726.28 416.58 725.62 416.07 C724.05 414.82 724.05 414.82 722 415 C722 414.34 722 413.68 722 413 C718.78 410.68 718.78 410.68 715 410 C715 409.34 715 408.68 715 408 C713.44 406.6 713.44 406.6 711.39 405.21 C710.63 404.68 709.88 404.15 709.1 403.61 C708.31 403.06 707.51 402.51 706.69 401.94 C705.9 401.38 705.12 400.83 704.31 400.26 C699.91 397.15 699.91 397.15 695 395 C695 394.34 695 393.68 695 393 C694.01 393 693.02 393 692 393 C692 392.34 692 391.68 692 391 C688.78 388.68 688.78 388.68 685 388 C685 387.34 685 386.68 685 386 C682.78 384.27 680.56 382.65 678.25 381.06 C676.98 380.18 675.72 379.29 674.45 378.41 C673.85 378 673.25 377.58 672.63 377.15 C671.29 376.2 669.97 375.2 668.67 374.18 C667.07 372.81 667.07 372.81 665 373 C665 372.34 665 371.68 665 371 C662.88 369.35 660.63 367.97 658.36 366.53 C656 365 656 365 653.06 362.62 C648.41 360.16 643.2 360.14 638.11 361.5 C635.95 362.01 634.07 362.14 631.86 362.16 C631.05 362.17 630.24 362.18 629.4 362.19 C628.53 362.19 627.66 362.2 626.76 362.2 C625.85 362.21 624.93 362.22 623.99 362.22 C621.04 362.24 618.08 362.25 615.12 362.25 C614.13 362.25 613.13 362.25 612.1 362.26 C576.55 362.27 576.55 362.27 568 358 C566.72 357.9 565.44 357.79 564.12 357.69 C559.05 357.19 554.57 355.6 549.78 353.91 C546.9 352.88 546.9 352.88 543.38 352.5 C539.57 351.94 536.56 350.71 533.04 349.22 C530.76 348.3 528.51 347.49 526.18 346.72 C516.17 343.42 507.14 339.18 497.94 334.05 C496.02 333.01 494.09 332.05 492.12 331.09 C487.29 328.7 482.68 325.96 478.06 323.19 C477.22 322.69 476.38 322.2 475.51 321.69 C470.29 318.56 465.51 315.18 460.81 311.31 C459.1 309.8 459.1 309.8 457 310 C457 309.34 457 308.68 457 308 C455.51 306.64 455.51 306.64 453.62 305.38 C453 304.93 452.37 304.48 451.73 304.02 C450.05 302.83 450.05 302.83 448 303 C448 302.34 448 301.68 448 301 C444.52 297.36 444.52 297.36 440 296 C439.67 295.01 439.34 294.02 439 293 C437.34 291.32 437.34 291.32 435.31 289.69 C432.64 287.44 430.14 285.17 427.75 282.62 C424.79 279.67 424.79 279.67 421 279 C418.33 280.33 418.33 280.33 415.75 282.31 C414.86 282.95 413.97 283.58 413.05 284.24 C412.37 284.82 411.7 285.4 411 286 C411 286.66 411 287.32 411 288 C410.34 288 409.68 288 409 288 C409 288.66 409 289.32 409 290 C406 291.5 406 291.5 403 293 C403 293.66 403 294.32 403 295 C402.46 295.25 401.93 295.5 401.38 295.75 C398.42 297.31 395.7 299.03 393 301 C393 301.66 393 302.32 393 303 C392.29 303.24 391.59 303.48 390.86 303.73 C387.57 305.19 385.09 307.04 382.25 309.25 C369.11 319.3 369.11 319.3 364 321 C364 321.66 364 322.32 364 323 C363.13 323.18 363.13 323.18 362.24 323.37 C359.95 324.02 358.24 324.87 356.19 326.06 C355.4 326.51 354.61 326.95 353.79 327.41 C351.75 328.57 349.71 329.73 347.68 330.9 C335.92 337.48 323.65 341.85 310.69 345.46 C308.98 345.86 308.98 345.86 308 347 C306.43 347.37 304.84 347.7 303.25 348 C302.39 348.16 301.53 348.33 300.64 348.5 C299.77 348.66 298.9 348.83 298 349 C297.28 349.17 296.56 349.34 295.82 349.52 C292.28 350.12 288.78 350.2 285.2 350.24 C284.45 350.25 283.69 350.25 282.91 350.26 C281.32 350.28 279.72 350.29 278.12 350.3 C276.52 350.31 274.92 350.33 273.31 350.36 C259.06 350.62 246.39 348.55 233.12 343.12 C232.52 342.88 231.91 342.63 231.28 342.37 C226.59 340.4 222.29 337.99 218.05 335.2 C216.02 334.01 214.3 333.44 212 333 C212 332.34 212 331.68 212 331 C210.09 329.22 210.09 329.22 207.69 327.44 C206.89 326.82 206.09 326.2 205.26 325.56 C203 323.85 203 323.85 200 323 C200 322.34 200 321.68 200 321 C198.67 319.33 198.67 319.33 197 318 C196.34 318 195.68 318 195 318 C194.58 317.15 194.58 317.15 194.16 316.28 C193 314 191.76 311.78 190.5 309.56 C185.09 299.8 184.72 291 185 280 C184.99 279.25 184.99 278.5 184.98 277.72 C185.37 267.7 191.81 257.21 198.54 250.1 C202.23 246.95 206.26 244.39 210.43 241.92 C211.98 240.99 213.49 240 215 239 C215 238.34 215 237.68 215 237 C215.59 236.88 216.18 236.76 216.78 236.64 C219.1 235.97 220.53 235.14 222.48 233.73 C223.14 233.26 223.8 232.79 224.48 232.31 C225.19 231.79 225.9 231.28 226.62 230.75 C227.74 229.95 227.74 229.95 228.88 229.13 C230.46 228 232.04 226.86 233.61 225.72 C235.92 224.05 238.24 222.39 240.56 220.73 C245.05 217.51 249.53 214.26 254 211 C254.77 210.44 255.55 209.87 256.35 209.29 C258.61 207.64 260.87 205.98 263.12 204.31 C263.82 203.81 264.51 203.3 265.23 202.78 C266.86 201.57 268.43 200.29 270 199 C270 198.34 270 197.68 270 197 C270.55 196.76 271.11 196.51 271.68 196.26 C274.46 194.75 276.69 192.91 279.12 190.88 C280.09 190.08 281.05 189.28 282.04 188.46 C283.01 187.65 283.99 186.84 285 186 C286.85 184.49 288.7 182.99 290.56 181.5 C291.77 180.53 291.77 180.53 293 179.53 C295 178 295 178 297 177 C297 176.34 297 175.68 297 175 C297.56 174.75 298.13 174.51 298.71 174.25 C301.39 172.79 303.38 171.01 305.62 168.94 C309.81 165.1 309.81 165.1 312 164 C312 163.34 312 162.68 312 162 C312.87 161.6 312.87 161.6 313.75 161.19 C316.06 159.97 318.02 158.7 320 157 C320 156.34 320 155.68 320 155 C321.49 154.5 321.49 154.5 323 154 C322.67 153.01 322.34 152.02 322 151 C307.34 145.58 289.97 145.67 274.5 144.94 C272.12 144.82 269.74 144.7 267.37 144.58 C265.91 144.51 264.45 144.43 262.98 144.37 C259.62 144.2 256.3 143.93 252.96 143.49 C249.13 143.02 245.39 142.81 241.54 142.72 C240.52 142.69 240.52 142.69 239.48 142.66 C237.34 142.6 235.2 142.55 233.06 142.5 C217.31 142.12 217.31 142.12 212.61 141.47 C204.46 140.43 196.07 140.95 187.87 141.02 C161.8 141.22 161.8 141.22 149.5 137.75 C148.69 137.53 147.88 137.31 147.04 137.08 C136.43 134.1 126.42 129.8 116.32 125.43 C113.3 124.13 110.29 122.86 107.25 121.62 C106.08 121.15 106.08 121.15 104.89 120.66 C103.02 119.89 103.02 119.89 101 120 Z M139 462 C138.35 462.73 137.69 463.45 137.02 464.2 C134.03 467.16 134.03 467.16 133 471 C132.34 471 131.68 471 131 471 C128.96 473.17 128.96 473.17 126.88 475.88 C125.79 477.23 125.79 477.23 124.68 478.62 C122.81 480.79 122.81 480.79 123 483 C122.34 483 121.68 483 121 483 C117.36 486.48 117.36 486.48 116 491 C115.34 491 114.68 491 114 491 C112.22 492.91 112.22 492.91 110.44 495.31 C109.82 496.11 109.2 496.91 108.56 497.74 C106.85 500 106.85 500 106 503 C105.34 503 104.68 503 104 503 C96.56 512.34 94.65 519.97 96 532 C97.93 538.15 101.09 542.81 106 547 C106.97 547.89 107.94 548.77 108.94 549.69 C115.89 554.93 123.61 554.75 132 554 C139 552.26 143.92 547.92 149 543 C150.24 541.86 150.24 541.86 151.5 540.69 C153.22 539.13 153.22 539.13 153 537 C153.66 537 154.32 537 155 537 C156.48 535.37 157.88 533.67 159.25 531.94 C161.96 528.54 164.68 525.19 167.56 521.94 C170.21 519.38 170.21 519.38 170 517 C170.66 517 171.32 517 172 517 C174.04 514.83 174.04 514.83 176.12 512.12 C176.85 511.22 177.57 510.32 178.32 509.38 C180.19 507.21 180.19 507.21 180 505 C180.66 505 181.32 505 182 505 C183.52 503.32 184.97 501.58 186.38 499.81 C187.15 498.85 187.92 497.89 188.71 496.89 C189.47 495.94 190.22 494.98 191 494 C191.76 493.1 192.51 492.19 193.29 491.26 C195.2 489.21 195.2 489.21 195 487 C195.66 487 196.32 487 197 487 C201.45 478.87 201.96 470.49 200.38 461.44 C198.55 456.88 196.17 452.76 193 449 C192.01 448.67 191.02 448.34 190 448 C190 447.34 190 446.68 190 446 C169.06 431.64 152.91 446.5 139 462 Z M228 511 C228 511.66 228 512.32 228 513 C227.34 513 226.68 513 226 513 C226 513.66 226 514.32 226 515 C225.34 515 224.68 515 224 515 C222.59 516.57 221.24 518.21 219.94 519.88 C216.03 524.78 211.94 529.42 207.65 534 C205.79 535.82 205.79 535.82 206 538 C205.34 538 204.68 538 204 538 C202.22 539.91 202.22 539.91 200.44 542.31 C199.82 543.11 199.2 543.91 198.56 544.74 C196.85 547 196.85 547 196 550 C195.34 550 194.68 550 194 550 C191.6 552.64 191.6 552.64 191 556 C190.34 556 189.68 556 189 556 C185.79 559.49 182.93 563.28 180 567 C179.4 567.72 178.8 568.45 178.18 569.2 C172.86 575.8 170.27 582.78 170.6 591.32 C171.95 600.29 175.77 606.69 182.72 612.38 C190.28 617.75 196.87 618.54 206 618 C213.17 616.74 220.21 612.56 225 607 C225 606.34 225 605.68 225 605 C225.66 605 226.32 605 227 605 C230.64 601.52 230.64 601.52 232 597 C232.66 597 233.32 597 234 597 C237.03 593.94 237.03 593.94 238 590 C238.66 590 239.32 590 240 590 C243.64 586.52 243.64 586.52 245 582 C245.66 582 246.32 582 247 582 C248.78 580.09 248.78 580.09 250.56 577.69 C251.18 576.89 251.8 576.09 252.44 575.26 C254.15 573 254.15 573 255 570 C255.66 570 256.32 570 257 570 C258.52 568.32 259.97 566.58 261.38 564.81 C262.15 563.85 262.92 562.89 263.71 561.89 C264.47 560.94 265.22 559.98 266 559 C266.76 558.1 267.51 557.19 268.29 556.26 C270.2 554.21 270.2 554.21 270 552 C270.66 552 271.32 552 272 552 C277.23 544.8 277.92 536.64 277 528 C276.04 524.75 274.69 521.93 273 519 C272.4 517.93 271.8 516.86 271.19 515.75 C266.45 509.8 260.43 506.53 253 505 C244.04 504.05 235.37 505.53 228 511 Z M298 581 C298 581.66 298 582.32 298 583 C297.34 583 296.68 583 296 583 C293.96 585.17 293.96 585.17 291.88 587.88 C291.15 588.78 290.43 589.68 289.68 590.62 C287.81 592.79 287.81 592.79 288 595 C287.34 595 286.68 595 286 595 C282.36 598.48 282.36 598.48 281 603 C280.34 603 279.68 603 279 603 C276.96 605.17 276.96 605.17 274.88 607.88 C273.79 609.23 273.79 609.23 272.68 610.62 C270.81 612.79 270.81 612.79 271 615 C270.34 615 269.68 615 269 615 C267.58 616.55 266.24 618.17 264.94 619.81 C264.14 620.81 263.34 621.82 262.52 622.85 C261.9 623.63 261.9 623.63 261.26 624.43 C260.04 625.95 258.78 627.44 257.51 628.93 C250.61 637.08 246.63 643.84 246.78 654.82 C247.72 664.03 252.33 670.9 259 677 C259.66 677 260.32 677 261 677 C261 677.66 261 678.32 261 679 C266.27 681.6 270.45 682.55 276.31 682.5 C277.05 682.5 277.79 682.5 278.56 682.5 C284.9 682.33 289.74 680.62 295 677 C295 676.34 295 675.68 295 675 C295.96 674.6 295.96 674.6 296.94 674.19 C299.33 673.11 299.33 673.11 300 670 C300.66 670 301.32 670 302 670 C303.46 668.39 304.84 666.71 306.19 665 C309.6 660.72 313.09 656.59 316.79 652.56 C318.2 651.07 318.2 651.07 318 649 C318.66 649 319.32 649 320 649 C321.48 647.37 322.88 645.67 324.25 643.94 C326.96 640.54 329.68 637.19 332.56 633.94 C335.21 631.38 335.21 631.38 335 629 C335.66 629 336.32 629 337 629 C339.04 626.83 339.04 626.83 341.12 624.12 C341.85 623.22 342.57 622.32 343.32 621.38 C345.19 619.21 345.19 619.21 345 617 C345.66 617 346.32 617 347 617 C351.04 611.11 352.41 605.91 352.44 598.81 C352.44 598.06 352.45 597.31 352.45 596.54 C352.32 590.14 350.65 585.31 347 580 C346.34 580 345.68 580 345 580 C344.81 579.44 344.63 578.89 344.44 578.31 C341.65 573.82 337.23 571.13 332.19 569.69 C318.78 566.99 307.13 570.69 298 581 Z M374.4 644.23 C372.79 645.89 372.79 645.89 373 648 C372.34 648 371.68 648 371 648 C367.36 651.48 367.36 651.48 366 656 C365.34 656 364.68 656 364 656 C362.22 657.91 362.22 657.91 360.44 660.31 C359.82 661.11 359.2 661.91 358.56 662.74 C356.85 665 356.85 665 356 668 C355.34 668 354.68 668 354 668 C352.44 669.69 350.95 671.46 349.5 673.25 C348.31 674.71 348.31 674.71 347.09 676.2 C345.41 678.45 344.12 680.45 343 683 C342.34 683 341.68 683 341 683 C340.73 683.8 340.46 684.61 340.19 685.44 C339.8 686.28 339.4 687.13 339 688 C337.51 688.5 337.51 688.5 336 689 C333.59 691.64 333.59 691.64 333 695 C332.34 695 331.68 695 331 695 C324.63 702.68 322.4 710.11 322.73 720.08 C323.57 729.07 327.27 735 334 741 C336.57 742.7 339.13 743.91 342 745 C342.97 745.41 343.94 745.83 344.94 746.25 C353.92 748.45 361 746.32 368.96 741.91 C370.8 740.81 370.8 740.81 373 739 C373 738.34 373 737.68 373 737 C373.66 737 374.32 737 375 737 C378.64 733.52 378.64 733.52 380 729 C380.66 729 381.32 729 382 729 C383.46 727.39 384.84 725.71 386.19 724 C388.98 720.5 391.79 717.04 394.75 713.69 C395.58 712.75 395.58 712.75 396.43 711.79 C396.95 711.2 397.46 710.61 398 710 C401.58 706.47 401.58 706.47 403 702 C403.66 702 404.32 702 405 702 C408.64 698.52 408.64 698.52 410 694 C410.66 694 411.32 694 412 694 C413.78 692.09 413.78 692.09 415.56 689.69 C416.18 688.89 416.8 688.09 417.44 687.26 C419.15 685 419.15 685 420 682 C420.66 682 421.32 682 422 682 C427.44 672.97 429.45 664.9 427.25 654.44 C425.8 650.44 424 646.74 422 643 C421.34 643 420.68 643 420 643 C420 642.34 420 641.68 420 641 C404.69 628.82 387.95 630.22 374.4 644.23 Z " fill="white" transform="translate(192,250)"/>
</svg>
