<?xml version="1.0" encoding="UTF-8"?>
<!-- Generator: visioncortex VTracer 0.6.3 -->
<svg version="1.1" xmlns="http://www.w3.org/2000/svg" width="1280" height="1280">
<path d="M0 0 C1.96 0.47 3.91 0.92 5.88 1.38 C18.47 4.51 30.32 9.4 42 15 C43.18 15.5 44.35 15.99 45.56 16.5 C53.68 20.04 61.44 24.11 68.94 28.8 C71.08 30.14 71.08 30.14 74 31 C74 31.66 74 32.32 74 33 C74.87 33.19 74.87 33.19 75.75 33.38 C78.02 34.01 79.93 34.89 82 36 C82 36.66 82 37.32 82 38 C82.65 38.21 83.29 38.41 83.96 38.62 C88.24 40.56 91.83 43.26 95.62 46 C97.14 47.08 98.65 48.17 100.16 49.25 C101.16 49.97 101.16 49.97 102.18 50.7 C103.76 51.83 105.38 52.92 107 54 C107 54.66 107 55.32 107 56 C108.65 56.66 110.3 57.32 112 58 C112 58.66 112 59.32 112 60 C112.6 60.29 113.2 60.58 113.81 60.88 C116 62 116 62 119 64 C119 64.66 119 65.32 119 66 C123.12 67.83 123.12 67.83 127.38 67.12 C127.91 66.75 128.45 66.38 129 66 C129 65.34 129 64.68 129 64 C130.99 62.65 132.99 61.32 135 60 C135.74 59.26 136.49 58.52 137.25 57.75 C137.83 57.17 138.4 56.59 139 56 C139.66 56 140.32 56 141 56 C141 55.34 141 54.68 141 54 C142.57 52.63 142.57 52.63 144.76 51.07 C145.95 50.22 145.95 50.22 147.15 49.35 C147.99 48.76 148.83 48.17 149.69 47.56 C150.5 46.98 151.32 46.39 152.16 45.79 C163.08 38 163.08 38 166 38 C166 37.34 166 36.68 166 36 C168.91 33.96 170.4 33 174 33 C174 32.34 174 31.68 174 31 C174.69 30.66 175.38 30.32 176.1 29.97 C181.29 27.39 186.45 24.78 191.55 22.02 C201.81 16.48 212.04 11.45 223.19 7.93 C225.74 7.09 228.16 6.12 230.62 5.06 C240.94 0.83 252.11 -1.72 263 -4 C263.69 -4.14 264.37 -4.29 265.08 -4.44 C289.6 -9.3 317.55 -9.19 342 -4 C343.78 -3.62 343.78 -3.62 345.61 -3.24 C351.53 -1.85 357.27 -0.03 363 2 C364.36 2.47 365.73 2.95 367.09 3.42 C368.6 3.94 370.11 4.47 371.62 5 C372.34 5.25 373.06 5.5 373.8 5.76 C378.28 7.33 382.65 9.08 387 11 C387 11.66 387 12.32 387 13 C387.74 13.12 388.48 13.24 389.24 13.37 C396.59 15.05 403.18 20.32 409.42 24.35 C411.19 25.48 413 26.56 414.83 27.59 C415.54 28.05 416.26 28.52 417 29 C417 29.66 417 30.32 417 31 C417.72 31.25 418.43 31.5 419.17 31.75 C422.31 33.14 424.64 34.84 427.31 37 C428.2 37.7 429.08 38.4 429.99 39.12 C430.65 39.74 431.32 40.36 432 41 C432 41.66 432 42.32 432 43 C432.99 43.33 433.98 43.66 435 44 C435 44.66 435 45.32 435 46 C435.66 46 436.32 46 437 46 C437 46.66 437 47.32 437 48 C437.99 48.33 438.98 48.66 440 49 C440 49.66 440 50.32 440 51 C440.66 51 441.32 51 442 51 C442 51.66 442 52.32 442 53 C442.99 53.33 443.98 53.66 445 54 C445 54.66 445 55.32 445 56 C445.66 56 446.32 56 447 56 C452 61.48 452 61.48 452 64 C452.66 64 453.32 64 454 64 C454.33 65.32 454.66 66.64 455 68 C455.66 68 456.32 68 457 68 C458.8 70.09 460.47 72.18 462.12 74.38 C462.59 74.98 463.06 75.58 463.54 76.2 C467 80.74 467 80.74 467 83 C467.66 83 468.32 83 469 83 C470.13 84.43 470.13 84.43 471.36 86.45 C472.04 87.56 472.04 87.56 472.73 88.69 C473.21 89.49 473.69 90.3 474.19 91.12 C474.93 92.36 474.93 92.36 475.68 93.61 C482.66 105.34 488.02 117.17 492.35 130.09 C493.23 132.69 494.21 135.25 495.19 137.81 C497.24 143.44 498.65 149.17 500 155 C500.18 155.72 500.37 156.45 500.56 157.2 C502.39 164.68 503.1 172.36 504 180 C504.17 181.23 504.34 182.47 504.52 183.74 C505.03 187.88 505.18 192 505.2 196.18 C505.21 196.94 505.22 197.7 505.22 198.49 C505.24 200.95 505.25 203.41 505.25 205.88 C505.25 206.72 505.25 207.56 505.25 208.43 C505.25 230.09 503.89 252.32 497 273 C533.3 272.67 569.6 272.34 607 272 C608.98 268.04 610.96 264.08 613 260 C615.6 256.27 615.6 256.27 618.06 253.38 C618.88 252.39 619.69 251.41 620.54 250.4 C622.99 248.01 624.76 246.98 628 246 C628 245.34 628 244.68 628 244 C630.91 241.96 632.4 241 636 241 C636 240.34 636 239.68 636 239 C651.43 231.8 668.36 230.22 684.61 235.81 C700.49 241.77 713.76 253.86 720.93 269.3 C726.52 283.47 727.3 300.61 722 315 C720.5 318.44 718.84 321.73 717 325 C716.44 326.03 715.89 327.06 715.31 328.12 C714.88 328.74 714.45 329.36 714 330 C713.34 330 712.68 330 712 330 C711.84 330.68 711.67 331.36 711.5 332.06 C709.31 336.35 705.88 339.2 702 342 C701.34 342 700.68 342 700 342 C700 342.66 700 343.32 700 344 C683.89 353.27 668.45 357.94 649.81 353.94 C633.88 349.21 619.75 339.36 611 325 C609.68 322.03 608.36 319.06 607 316 C566.41 315.67 525.82 315.34 484 315 C483.01 317.97 482.02 320.94 481 324 C478.29 331.17 475.51 338.29 471.95 345.08 C470.04 348.94 468.55 352.99 467 357 C466.34 357 465.68 357 465 357 C464.88 357.74 464.76 358.47 464.63 359.23 C464.02 361.91 463.2 363.91 461.93 366.33 C461.51 367.12 461.09 367.92 460.66 368.74 C460.22 369.57 459.77 370.4 459.31 371.25 C458.63 372.53 458.63 372.53 457.94 373.84 C455.3 378.75 452.54 383.46 449.33 388.01 C447.86 390.21 446.66 392.47 445.44 394.81 C442.42 400.47 438.99 405.82 435.5 411.19 C434.95 412.03 434.41 412.87 433.85 413.74 C430.79 418.41 427.63 422.92 424.18 427.3 C422.81 429.11 422.81 429.11 422 432 C421.34 432 420.68 432 420 432 C419.69 432.78 419.38 433.57 419.06 434.38 C418 437 418 437 417 439 C416.34 439 415.68 439 415 439 C414.66 440.03 414.66 440.03 414.32 441.08 C412.67 444.74 410.43 447.57 407.94 450.69 C404.67 454.65 404.67 454.65 402 459 C401.34 459 400.68 459 400 459 C399.77 459.53 399.54 460.06 399.3 460.61 C397.6 463.74 395.45 466.46 393.25 469.25 C392.35 470.4 391.45 471.56 390.55 472.71 C390.11 473.27 389.67 473.83 389.22 474.41 C387.13 477.13 385.14 479.91 383.16 482.71 C382.58 483.35 382.58 483.35 382 484 C381.34 484 380.68 484 380 484 C379.69 484.62 379.38 485.24 379.06 485.88 C378.38 487.25 377.69 488.62 377 490 C376.34 490 375.68 490 375 490 C374.77 490.54 374.55 491.09 374.32 491.65 C372.59 494.74 370.35 497.04 367.94 499.62 C364.58 503.04 364.58 503.04 362 507 C361.34 507 360.68 507 360 507 C359.67 507.99 359.34 508.98 359 510 C358.34 510 357.68 510 357 510 C356.78 510.54 356.56 511.08 356.33 511.63 C354.55 514.79 352.17 517.26 349.69 519.88 C348.73 520.89 347.78 521.91 346.82 522.93 C346.36 523.43 345.89 523.93 345.4 524.44 C343.96 526.04 342.62 527.7 341.27 529.38 C340.52 530.25 339.77 531.11 339 532 C338.34 532 337.68 532 337 532 C337 532.66 337 533.32 337 534 C335.62 535.62 335.62 535.62 334 537 C333.34 537 332.68 537 332 537 C331.73 537.64 331.46 538.28 331.19 538.94 C330 541 330 541 327 542 C326.67 542.66 326.34 543.32 326 544 C325.67 544.66 325.34 545.32 325 546 C324.01 546.33 323.02 546.66 322 547 C321.67 547.66 321.34 548.32 321 549 C320.67 549.66 320.34 550.32 320 551 C319.01 551.33 318.02 551.66 317 552 C316.67 552.66 316.34 553.32 316 554 C315.67 554.66 315.34 555.32 315 556 C314.01 556.33 313.02 556.66 312 557 C311.67 557.66 311.34 558.32 311 559 C310.67 559.66 310.34 560.32 310 561 C309.01 561.33 308.02 561.66 307 562 C306.67 562.99 306.34 563.98 306 565 C305.34 565 304.68 565 304 565 C304 565.66 304 566.32 304 567 C303.34 567 302.68 567 302 567 C302 567.66 302 568.32 302 569 C300.62 570.62 300.62 570.62 299 572 C298.34 572 297.68 572 297 572 C297 572.66 297 573.32 297 574 C295.39 575.66 295.39 575.66 293.25 577.5 C292.21 578.41 292.21 578.41 291.14 579.34 C289.16 580.88 287.28 581.97 285 583 C285 583.66 285 584.32 285 585 C283.32 586.73 283.32 586.73 281.12 588.62 C280.05 589.57 280.05 589.57 278.95 590.54 C277 592 277 592 275 592 C274.67 592.99 274.34 593.98 274 595 C273.34 595 272.68 595 272 595 C272 595.66 272 596.32 272 597 C270.3 598.52 268.54 599.97 266.75 601.38 C263.95 603.59 261.26 605.73 258.77 608.29 C257 610 257 610 255 610 C255 610.66 255 611.32 255 612 C249.52 617 249.52 617 247 617 C247 617.66 247 618.32 247 619 C245.31 620.56 243.54 622.05 241.75 623.5 C240.78 624.29 239.8 625.09 238.8 625.91 C236.55 627.59 234.55 628.88 232 630 C232 630.66 232 631.32 232 632 C230.28 633.52 230.28 633.52 227.94 635.25 C224.88 637.55 221.93 639.89 219.06 642.44 C216 645 216 645 214 645 C214 645.66 214 646.32 214 647 C212.54 648.29 212.54 648.29 210.62 649.62 C210 650.07 209.37 650.52 208.73 650.98 C207 652 207 652 205 652 C204.67 652.99 204.34 653.98 204 655 C201.44 656.19 201.44 656.19 199 657 C199 657.66 199 658.32 199 659 C197.32 660.51 197.32 660.51 195.12 662.12 C194.41 662.66 193.69 663.2 192.95 663.76 C191 665 191 665 189 665 C189 665.66 189 666.32 189 667 C187.41 668.3 185.75 669.51 184.06 670.69 C179.51 673.91 175.11 677.24 170.78 680.75 C169 682 169 682 167 682 C167 682.66 167 683.32 167 684 C165.14 685.59 163.28 687.05 161.31 688.5 C160.78 688.9 160.25 689.31 159.71 689.72 C156.6 692.03 153.66 693.75 150 695 C150 695.66 150 696.32 150 697 C147.74 698.8 145.49 700.47 143.12 702.12 C142.47 702.59 141.82 703.06 141.15 703.54 C136.26 707 136.26 707 134 707 C134 707.66 134 708.32 134 709 C132.68 709.33 131.36 709.66 130 710 C130 710.66 130 711.32 130 712 C129.01 712 128.02 712 127 712 C127 712.66 127 713.32 127 714 C125.02 714 123.04 714 121 714 C121 713.34 121 712.68 121 712 C120.02 711.69 120.02 711.69 119.01 711.38 C114.83 709.46 111.44 706.74 107.81 703.94 C106.38 702.84 104.95 701.75 103.52 700.65 C102.89 700.17 102.26 699.68 101.62 699.18 C100 697.93 100 697.93 98 697 C98 696.34 98 695.68 98 695 C97.31 694.76 96.61 694.53 95.89 694.28 C92.48 692.77 89.64 690.75 86.69 688.5 C86.14 688.1 85.59 687.69 85.02 687.28 C83.64 686.24 82.31 685.12 81 684 C81 683.34 81 682.68 81 682 C80.34 681.79 79.68 681.59 79 681.38 C74.93 679.51 71.31 677.02 68 674 C68 673.34 68 672.68 68 672 C67.26 671.73 66.51 671.46 65.75 671.19 C63.11 670.05 61.14 668.91 59 667 C59 666.34 59 665.68 59 665 C58.43 664.74 57.87 664.48 57.29 664.22 C54.76 662.87 52.67 661.29 50.44 659.5 C48 657.56 45.6 655.73 43 654 C43 653.34 43 652.68 43 652 C42.34 651.81 41.68 651.63 41 651.44 C37.33 649.68 34.75 647.3 31.77 644.56 C30.07 642.93 30.07 642.93 28 642 C28 641.34 28 640.68 28 640 C27.43 639.73 26.86 639.46 26.27 639.19 C23.92 637.96 21.88 636.57 19.75 635 C18.69 634.23 18.69 634.23 17.61 633.44 C17.08 632.96 16.55 632.49 16 632 C16 631.34 16 630.68 16 630 C15.46 629.76 14.92 629.53 14.36 629.28 C11.37 627.66 8.89 625.65 6.25 623.5 C5.27 622.71 4.28 621.91 3.27 621.09 C2.52 620.4 1.77 619.71 1 619 C1 618.34 1 617.68 1 617 C0.42 616.73 -0.15 616.46 -0.75 616.19 C-3.06 614.97 -5.02 613.7 -7 612 C-7 611.34 -7 610.68 -7 610 C-7.54 609.77 -8.09 609.55 -8.65 609.32 C-11.74 607.59 -14.04 605.35 -16.62 602.94 C-20.04 599.58 -20.04 599.58 -24 597 C-24 596.34 -24 595.68 -24 595 C-24.99 594.67 -25.98 594.34 -27 594 C-27 593.34 -27 592.68 -27 592 C-27.58 591.73 -28.15 591.46 -28.75 591.19 C-31.06 589.97 -33.02 588.7 -35 587 C-35 586.34 -35 585.68 -35 585 C-35.57 584.75 -36.15 584.51 -36.74 584.25 C-39.36 582.8 -41.06 581.1 -43.12 578.94 C-45.78 576.08 -45.78 576.08 -49 574 C-49 573.34 -49 572.68 -49 572 C-49.66 572 -50.32 572 -51 572 C-52.63 570.62 -52.63 570.62 -54 569 C-54 568.34 -54 567.68 -54 567 C-54.64 566.73 -55.28 566.46 -55.94 566.19 C-58 565 -58 565 -59 562 C-59.66 561.67 -60.32 561.34 -61 561 C-63 560 -63 560 -64 557 C-64.56 556.73 -65.11 556.46 -65.69 556.19 C-69.04 554.47 -71.62 551.91 -74 549 C-74 548.34 -74 547.68 -74 547 C-74.64 546.73 -75.28 546.46 -75.94 546.19 C-78 545 -78 545 -79 542 C-79.66 541.67 -80.32 541.34 -81 541 C-83 540 -83 540 -84 537 C-84.66 536.67 -85.32 536.34 -86 536 C-88 535 -88 535 -89 532 C-89.66 532 -90.32 532 -91 532 C-92.23 530.78 -92.23 530.78 -93.75 528.94 C-96.28 525.94 -98.88 523.04 -101.57 520.2 C-102.53 519.19 -102.53 519.19 -103.5 518.17 C-104.79 516.81 -106.08 515.46 -107.38 514.11 C-107.97 513.47 -108.57 512.84 -109.18 512.2 C-110 511.34 -110 511.34 -110.83 510.48 C-112 509 -112 509 -112 507 C-112.66 507 -113.32 507 -114 507 C-115.52 505.3 -116.97 503.54 -118.38 501.75 C-120.59 498.95 -122.73 496.26 -125.29 493.77 C-127 492 -127 492 -127 490 C-127.66 490 -128.32 490 -129 490 C-132 486.54 -132 486.54 -132 484 C-132.66 484 -133.32 484 -134 484 C-135.69 482.14 -135.69 482.14 -137.56 479.69 C-138.18 478.89 -138.8 478.09 -139.44 477.26 C-141 475 -141 475 -142 472 C-142.66 472 -143.32 472 -144 472 C-145.59 470.05 -145.59 470.05 -147.5 467.31 C-150.54 463.03 -153.65 458.83 -156.88 454.69 C-160.54 449.95 -164.12 445.17 -167.62 440.31 C-168.06 439.71 -168.5 439.11 -168.95 438.49 C-172 434.24 -172 434.24 -172 432 C-172.66 432 -173.32 432 -174 432 C-175.34 430.19 -175.34 430.19 -176.94 427.56 C-177.86 426.06 -177.86 426.06 -178.81 424.54 C-179.15 423.97 -179.5 423.41 -179.85 422.84 C-182.02 419.36 -184.27 415.93 -186.5 412.5 C-187.44 411.04 -188.39 409.58 -189.33 408.12 C-190.96 405.59 -192.61 403.08 -194.26 400.57 C-194.9 399.6 -195.53 398.63 -196.19 397.62 C-196.74 396.79 -197.29 395.96 -197.86 395.1 C-199 393 -199 393 -199 390 C-199.66 390 -200.32 390 -201 390 C-202.27 387.79 -203.54 385.58 -204.81 383.38 C-205.17 382.76 -205.53 382.14 -205.89 381.5 C-212 370.86 -212 370.86 -212 367 C-212.66 367 -213.32 367 -214 367 C-217 361.22 -219.68 355.43 -222.04 349.36 C-223.19 346.52 -224.55 343.82 -225.94 341.09 C-229.87 333.33 -233 325.41 -235.83 317.2 C-237.16 313.35 -238.55 309.56 -240.12 305.81 C-242.15 300.88 -243.56 295.82 -244.97 290.69 C-245.53 288.69 -246.09 286.7 -246.71 284.72 C-248.64 278.56 -249.99 272.42 -251.12 266.06 C-251.46 264.22 -251.79 262.38 -252.13 260.54 C-252.35 259.33 -252.35 259.33 -252.57 258.11 C-252.99 255.82 -252.99 255.82 -254 253 C-254.27 250.27 -254.44 247.53 -254.62 244.79 C-254.93 241.19 -254.93 241.19 -255.47 238.41 C-257.17 228.97 -257.31 219.72 -257.26 210.16 C-257.25 207.44 -257.26 204.72 -257.27 201.99 C-257.28 193.68 -257.16 185.65 -255.47 177.47 C-254.94 174.7 -254.77 172 -254.62 169.19 C-254.18 163.12 -252.7 157.52 -251.04 151.68 C-250.1 148.36 -249.28 145.04 -248.5 141.69 C-247.37 137.11 -245.87 132.85 -244.04 128.51 C-242.92 125.81 -241.96 123.07 -241 120.31 C-239.4 115.85 -237.42 112.07 -235 108 C-234.3 106.31 -233.6 104.62 -232.9 102.93 C-230.96 98.76 -228.43 94.91 -226 91 C-225.46 90.1 -224.92 89.2 -224.37 88.27 C-220.81 82.42 -216.88 77.42 -212.21 72.42 C-208.04 67.85 -204.41 62.87 -200.69 57.94 C-200.13 57.3 -199.57 56.66 -199 56 C-198.34 56 -197.68 56 -197 56 C-196.79 55.46 -196.59 54.93 -196.38 54.38 C-194.47 51.08 -191.95 48.41 -189 46 C-188.34 46 -187.68 46 -187 46 C-186.67 45.01 -186.34 44.02 -186 43 C-185.34 43 -184.68 43 -184 43 C-184 42.34 -184 41.68 -184 41 C-181.91 39.2 -179.82 37.53 -177.62 35.88 C-177.02 35.41 -176.42 34.94 -175.8 34.46 C-171.26 31 -171.26 31 -169 31 C-169 30.34 -169 29.68 -169 29 C-166.95 27.48 -166.95 27.48 -164.12 25.75 C-163.12 25.13 -162.11 24.51 -161.08 23.87 C-159.55 22.94 -159.55 22.94 -158 22 C-157.13 21.47 -156.26 20.93 -155.36 20.38 C-152.92 18.9 -150.46 17.45 -148 16 C-147.26 15.56 -146.52 15.11 -145.76 14.66 C-140.89 11.82 -135.99 9.8 -130.66 7.96 C-128.31 7.11 -126.12 6.15 -123.88 5.06 C-86.61 -11.99 -38.61 -11.25 0 0 Z M208 143 C203.67 150.45 200.88 158.76 198.18 166.91 C197 170.41 195.71 173.7 194.01 176.98 C191.91 181.03 190.43 185.18 189 189.5 C187.32 194.56 185.42 199.25 182.97 203.99 C181.33 207.38 180.18 210.93 179 214.5 C177.32 219.56 175.42 224.25 172.97 228.99 C171.33 232.38 170.18 235.93 169 239.5 C167.32 244.56 165.42 249.25 162.97 253.99 C161.33 257.38 160.18 260.93 159 264.5 C157.32 269.56 155.42 274.25 152.97 278.99 C151.33 282.38 150.18 285.93 149 289.5 C147.32 294.56 145.42 299.25 142.97 303.99 C141.33 307.38 140.18 310.93 139 314.5 C137.32 319.56 135.42 324.25 132.97 328.99 C131.33 332.38 130.18 335.93 129 339.5 C127.32 344.56 125.42 349.25 122.97 353.99 C121.33 357.38 120.18 360.93 119 364.5 C117.31 369.6 115.4 374.36 112.93 379.14 C111.66 381.69 110.69 384.31 109.75 387 C109.41 387.95 109.08 388.9 108.73 389.88 C108.49 390.58 108.25 391.28 108 392 C107.01 392 106.02 392 105 392 C103.2 386.7 101.54 381.39 100 376 C99.28 373.83 98.54 371.66 97.78 369.5 C96.94 366.79 96.27 364.06 95.6 361.3 C94.44 356.85 93.05 352.46 91.69 348.06 C89.29 340.25 86.92 332.44 84.69 324.58 C83.53 320.57 82.18 316.69 80.69 312.8 C79.89 310.71 79.15 308.61 78.44 306.5 C78.21 305.83 77.98 305.16 77.75 304.47 C77.14 302.46 76.62 300.44 76.12 298.4 C74.84 293.23 73.26 288.15 71.69 283.06 C69.29 275.25 66.92 267.44 64.69 259.58 C63.53 255.57 62.18 251.69 60.69 247.8 C59.89 245.71 59.15 243.61 58.44 241.5 C58.21 240.83 57.98 240.16 57.75 239.47 C57.14 237.46 56.62 235.44 56.12 233.4 C54.84 228.23 53.26 223.15 51.69 218.06 C48.1 206.45 48.1 206.45 46.64 201.04 C43.04 187.26 43.04 187.26 33.25 177.5 C32.18 177 31.11 176.51 30 176 C29.34 175.67 28.68 175.34 28 175 C21.72 174.46 17.12 175.15 12 179 C8.33 182.86 4.96 186.64 4 192 C3.34 192 2.68 192 2 192 C1.16 193.43 0.33 194.87 -0.5 196.31 C-0.96 197.11 -1.43 197.91 -1.91 198.74 C-3.22 201.03 -3.22 201.03 -3 204 C-3.66 204 -4.32 204 -5 204 C-6.01 205.79 -7 207.58 -8 209.38 C-8.56 210.37 -9.11 211.37 -9.69 212.4 C-11.15 214.81 -11.15 214.81 -11 217 C-11.66 217 -12.32 217 -13 217 C-13.84 218.43 -14.67 219.87 -15.5 221.31 C-15.96 222.11 -16.43 222.91 -16.91 223.74 C-18.22 226.03 -18.22 226.03 -18 229 C-18.66 229 -19.32 229 -20 229 C-21.01 230.79 -22 232.58 -23 234.38 C-23.56 235.37 -24.11 236.37 -24.69 237.4 C-26.15 239.81 -26.15 239.81 -26 242 C-26.66 242 -27.32 242 -28 242 C-28.84 243.43 -29.67 244.87 -30.5 246.31 C-30.96 247.11 -31.43 247.91 -31.91 248.74 C-33.22 251.03 -33.22 251.03 -33 254 C-33.66 254 -34.32 254 -35 254 C-36.01 255.79 -37 257.58 -38 259.38 C-38.56 260.37 -39.11 261.37 -39.69 262.4 C-41.15 264.81 -41.15 264.81 -41 267 C-41.66 267 -42.32 267 -43 267 C-43.41 268.14 -43.82 269.27 -44.24 270.44 C-45.74 273.04 -46.48 273.86 -49.41 274.66 C-52.69 274.91 -55.92 274.93 -59.2 274.89 C-60.45 274.9 -61.7 274.91 -62.99 274.92 C-66.41 274.94 -69.83 274.93 -73.25 274.91 C-76.83 274.9 -80.41 274.92 -83.98 274.94 C-90.75 274.97 -97.53 274.97 -104.3 274.95 C-112.01 274.93 -119.72 274.95 -127.43 274.98 C-143.28 275.03 -159.14 275.03 -175 275 C-175 287.54 -175 300.08 -175 313 C-156.49 313.09 -137.99 313.16 -119.48 313.21 C-110.89 313.23 -102.29 313.26 -93.7 313.3 C-86.21 313.34 -78.72 313.37 -71.22 313.38 C-67.26 313.38 -63.29 313.39 -59.33 313.42 C-55.59 313.45 -51.86 313.46 -48.12 313.45 C-46.1 313.45 -44.09 313.48 -42.07 313.5 C-34 313.46 -28.08 312.83 -21.97 307.1 C-16.08 298.94 -10.8 290.44 -6.06 281.56 C-3.41 276.59 -0.41 271.92 2.67 267.21 C5.59 262.73 8.15 258.13 10.66 253.42 C15.46 244.77 15.46 244.77 19 243 C19.17 243.75 19.34 244.5 19.52 245.27 C20.93 251.24 22.56 256.84 25.04 262.45 C26.06 265.16 26.74 267.89 27.42 270.71 C28.55 275.16 29.96 279.54 31.31 283.94 C33.71 291.75 36.08 299.56 38.31 307.42 C39.47 311.43 40.82 315.31 42.31 319.2 C43.11 321.29 43.85 323.39 44.56 325.5 C44.79 326.17 45.02 326.84 45.25 327.53 C45.86 329.54 46.38 331.56 46.88 333.6 C48.16 338.77 49.74 343.85 51.31 348.94 C53.71 356.75 56.08 364.56 58.31 372.42 C59.47 376.43 60.82 380.31 62.31 384.2 C63.11 386.29 63.85 388.39 64.56 390.5 C64.79 391.17 65.02 391.84 65.25 392.53 C65.86 394.54 66.38 396.56 66.88 398.6 C68.16 403.77 69.74 408.85 71.31 413.94 C73.71 421.75 76.08 429.56 78.31 437.42 C79.46 441.39 80.82 445.22 82.29 449.07 C83.33 451.89 84.08 454.79 84.88 457.69 C86.98 464.54 89.63 467.78 95.81 471.31 C100.74 473.58 104.93 474.01 110.11 472.3 C119.22 468.24 122.42 460.83 126 452 C127.05 449.23 128.06 446.46 129.04 443.67 C130.58 439.4 132.3 435.21 134 431 C135 428.5 136 426 137 423.5 C137.52 422.2 138.04 420.9 138.56 419.59 C139.04 418.41 139.51 417.22 140 416 C165.15 353.14 190.29 290.27 215.44 227.41 C215.69 226.77 215.95 226.13 216.21 225.47 C216.73 224.16 217.26 222.86 217.78 221.55 C218.92 218.7 220.06 215.85 221.17 212.99 C222.82 208.75 224.46 204.81 227 201 C229.94 203.73 231.86 206.25 233.69 209.81 C236.14 214.46 238.76 218.96 241.5 223.44 C244.28 228 246.85 232.57 249.19 237.38 C251.29 241.7 253.64 245.59 256.37 249.54 C261.17 256.79 265.32 264.5 269.12 272.31 C271.23 276.6 273.57 280.47 276.3 284.38 C278.99 288.53 281.33 292.88 283.67 297.24 C287.61 304.46 291.76 310.55 300 313 C305.9 313.58 311.78 313.51 317.71 313.45 C319.51 313.45 321.32 313.45 323.12 313.46 C328 313.46 332.88 313.43 337.76 313.41 C342.87 313.38 347.98 313.38 353.09 313.37 C362.75 313.36 372.42 313.33 382.08 313.29 C393.09 313.24 404.09 313.22 415.1 313.2 C437.73 313.16 460.37 313.09 483 313 C483.71 311.37 483.71 311.37 484.44 309.71 C484.7 309.1 484.97 308.49 485.25 307.86 C486.41 304.98 487.17 302 488 299 C488.48 297.67 488.96 296.33 489.44 295 C490.87 290.8 491.76 286.54 492.6 282.19 C492.8 281.15 492.8 281.15 493.01 280.09 C493.34 278.39 493.67 276.7 494 275 C493.08 275.01 492.17 275.01 491.23 275.02 C468.95 275.18 446.68 275.27 424.4 275.28 C413.63 275.29 402.85 275.32 392.08 275.41 C382.69 275.48 373.3 275.52 363.91 275.49 C358.94 275.48 353.97 275.49 349 275.56 C344.31 275.62 339.63 275.62 334.95 275.58 C333.24 275.57 331.52 275.59 329.8 275.63 C324.59 275.74 319.98 275.65 315 274 C311.13 270.07 309.17 266.09 307 261 C305.92 258.85 304.84 256.7 303.75 254.56 C303.27 253.58 302.79 252.59 302.3 251.57 C300.76 248.53 298.91 245.81 297 243 C296.09 241.36 295.2 239.71 294.31 238.06 C291.85 233.47 289.21 229.01 286.5 224.56 C283.72 220 281.15 215.43 278.81 210.62 C276.71 206.3 274.36 202.41 271.63 198.46 C266.83 191.21 262.68 183.5 258.88 175.69 C256.75 171.36 254.39 167.44 251.64 163.48 C247.73 157.57 244.36 151.28 240.94 145.08 C238.38 140.51 236.38 138.33 231.88 135.81 C221.98 133.02 214.86 135.51 208 143 Z M649.12 281.94 C645.51 287.15 644.06 291.61 645 298 C647.22 304.85 651.11 308.85 657.38 312.31 C663.72 313.97 668.52 313.42 674.18 310.27 C678.52 307.25 681.65 303.15 683 298 C683.62 291.66 682.66 287.27 679 282 C674.72 277.37 670.42 275.24 664.19 274.62 C658.11 274.81 653.12 277.4 649.12 281.94 Z " fill="#000000" transform="translate(516,66)"/>
<path d="M0 0 C1.14 -0.01 2.27 -0.02 3.44 -0.03 C14.26 0.08 24.03 2.15 33.62 7.19 C34.31 7.54 34.99 7.89 35.69 8.25 C41.1 11.11 45.91 14.3 50.44 18.44 C51.27 19.19 52.1 19.94 52.95 20.71 C62.92 30.17 70.22 40.5 70.89 54.47 C71.14 65.75 68.38 75.83 61.12 84.71 C58.21 87.69 55.02 90.31 51.44 92.44 C50.78 92.44 50.12 92.44 49.44 92.44 C49.44 93.1 49.44 93.76 49.44 94.44 C48.01 95.21 48.01 95.21 46.56 96 C42.65 98.24 39.02 100.8 35.34 103.4 C32.07 105.69 28.76 107.92 25.44 110.12 C24.81 110.54 24.18 110.96 23.53 111.39 C22.2 112.28 20.87 113.16 19.54 114.04 C16.6 116 13.66 117.95 10.72 119.91 C9.21 120.93 7.69 121.94 6.17 122.95 C2.44 125.43 -1.27 127.91 -4.97 130.42 C-6.01 131.12 -6.01 131.12 -7.06 131.84 C-8.37 132.72 -9.67 133.6 -10.97 134.49 C-15.34 137.44 -15.34 137.44 -17.56 137.44 C-17.56 138.1 -17.56 138.76 -17.56 139.44 C-18.59 140.01 -19.62 140.59 -20.69 141.19 C-23.16 142.59 -25.53 144.07 -27.88 145.69 C-30.56 147.44 -30.56 147.44 -32.56 147.44 C-32.56 148.1 -32.56 148.76 -32.56 149.44 C-33.61 150.01 -34.67 150.59 -35.75 151.19 C-38.18 152.56 -40.13 153.9 -42.31 155.69 C-44.56 157.44 -44.56 157.44 -47.56 157.44 C-47.56 158.1 -47.56 158.76 -47.56 159.44 C-49.83 161.13 -49.83 161.13 -52.81 163 C-53.79 163.62 -54.76 164.24 -55.77 164.88 C-58.13 166.2 -59.92 166.98 -62.56 167.44 C-62.56 168.1 -62.56 168.76 -62.56 169.44 C-64.44 170.81 -64.44 170.81 -67.12 172.44 C-71.87 175.37 -76.55 178.39 -81.19 181.5 C-82.15 182.14 -82.15 182.14 -83.12 182.79 C-85.91 184.65 -88.68 186.52 -91.45 188.41 C-92.65 189.23 -92.65 189.23 -93.88 190.06 C-94.89 190.76 -94.89 190.76 -95.93 191.48 C-97.56 192.44 -97.56 192.44 -99.56 192.44 C-99.56 193.1 -99.56 193.76 -99.56 194.44 C-100.55 194.44 -101.54 194.44 -102.56 194.44 C-102.56 195.1 -102.56 195.76 -102.56 196.44 C-104.68 197.95 -104.68 197.95 -107.44 199.56 C-108.34 200.1 -109.25 200.64 -110.18 201.2 C-112.56 202.44 -112.56 202.44 -114.56 202.44 C-114.56 203.1 -114.56 203.76 -114.56 204.44 C-115.55 204.44 -116.54 204.44 -117.56 204.44 C-117.56 205.1 -117.56 205.76 -117.56 206.44 C-119.83 208.13 -119.83 208.13 -122.81 210 C-123.79 210.62 -124.76 211.24 -125.77 211.88 C-128.13 213.2 -129.92 213.98 -132.56 214.44 C-132.56 215.1 -132.56 215.76 -132.56 216.44 C-134.83 218.13 -134.83 218.13 -137.81 220 C-138.79 220.62 -139.76 221.24 -140.77 221.88 C-143.13 223.2 -144.92 223.98 -147.56 224.44 C-147.56 225.1 -147.56 225.76 -147.56 226.44 C-149.83 228.13 -149.83 228.13 -152.81 230 C-153.79 230.62 -154.76 231.24 -155.77 231.88 C-158.13 233.2 -159.92 233.98 -162.56 234.44 C-162.56 235.1 -162.56 235.76 -162.56 236.44 C-164.55 237.88 -164.55 237.88 -167.31 239.56 C-175.54 244.66 -183.59 249.94 -191.38 255.69 C-194.27 257.82 -197.1 259.84 -200.25 261.56 C-203.62 263.47 -206.53 265.65 -209.59 268 C-211.89 269.68 -214.27 271.01 -216.77 272.36 C-219.62 274.07 -222.18 276.17 -224.77 278.27 C-226.56 279.44 -226.56 279.44 -229.56 279.44 C-229.56 280.1 -229.56 280.76 -229.56 281.44 C-231.83 283.13 -231.83 283.13 -234.81 285 C-235.79 285.62 -236.76 286.24 -237.77 286.88 C-240.13 288.2 -241.92 288.98 -244.56 289.44 C-244.56 290.1 -244.56 290.76 -244.56 291.44 C-246.69 292.95 -246.69 292.95 -249.56 294.69 C-253.1 296.87 -256.52 299.08 -259.81 301.62 C-262.69 303.84 -265.6 305.64 -268.78 307.38 C-270.83 308.6 -272.67 309.98 -274.56 311.44 C-277.49 313.68 -280.44 315.55 -283.68 317.33 C-286.8 319.17 -289.7 321.31 -292.66 323.4 C-297.18 326.57 -301.78 329.61 -306.39 332.66 C-309.42 334.67 -312.44 336.7 -315.46 338.75 C-316.27 339.3 -317.09 339.85 -317.94 340.42 C-319.54 341.5 -321.15 342.59 -322.75 343.68 C-323.48 344.17 -324.21 344.66 -324.96 345.16 C-325.93 345.82 -325.93 345.82 -326.92 346.49 C-328.56 347.44 -328.56 347.44 -330.56 347.44 C-330.56 348.1 -330.56 348.76 -330.56 349.44 C-332.11 350.3 -332.11 350.3 -333.69 351.19 C-336.16 352.59 -338.53 354.07 -340.88 355.69 C-343.56 357.44 -343.56 357.44 -345.56 357.44 C-345.56 358.1 -345.56 358.76 -345.56 359.44 C-346.99 360.24 -346.99 360.24 -348.44 361.06 C-350.54 362.26 -352.61 363.47 -354.66 364.76 C-365.49 371.55 -377.24 376.65 -389.12 381.31 C-389.85 381.6 -390.58 381.88 -391.32 382.18 C-396.02 383.98 -400.67 385.28 -405.56 386.44 C-407.13 386.91 -408.69 387.39 -410.25 387.88 C-425.59 391.93 -440.83 392.73 -456.62 392.75 C-457.82 392.76 -457.82 392.76 -459.04 392.76 C-467.52 392.78 -475.63 392.52 -483.99 390.91 C-488.34 390.11 -492.69 389.98 -497.11 389.78 C-502.21 389.53 -502.21 389.53 -504.46 388.95 C-506.86 388.36 -509.17 388.14 -511.62 387.94 C-512.59 387.86 -513.55 387.77 -514.54 387.69 C-515.54 387.61 -516.53 387.52 -517.56 387.44 C-519.54 387.27 -521.52 387.11 -523.5 386.94 C-524.38 386.87 -525.25 386.79 -526.15 386.72 C-528.37 386.46 -530.4 385.99 -532.56 385.44 C-534.98 385.26 -537.39 385.12 -539.81 385 C-550.3 384.42 -560.64 383.1 -571 381.38 C-576.93 380.42 -582.83 380.04 -588.83 379.78 C-594.18 379.53 -594.18 379.53 -596.49 378.95 C-598.8 378.38 -601.03 378.14 -603.41 377.94 C-604.32 377.86 -605.24 377.77 -606.18 377.69 C-607.13 377.61 -608.08 377.52 -609.06 377.44 C-610.95 377.27 -612.83 377.11 -614.72 376.94 C-615.55 376.87 -616.39 376.79 -617.24 376.72 C-619.43 376.45 -621.44 375.98 -623.56 375.44 C-625.98 375.26 -628.39 375.12 -630.81 375 C-641.3 374.42 -651.64 373.1 -662 371.38 C-667.93 370.42 -673.83 370.04 -679.83 369.78 C-685.18 369.53 -685.18 369.53 -687.49 368.95 C-689.8 368.38 -692.03 368.14 -694.41 367.94 C-695.32 367.86 -696.24 367.77 -697.18 367.69 C-698.13 367.61 -699.08 367.52 -700.06 367.44 C-701.95 367.27 -703.83 367.11 -705.72 366.94 C-706.55 366.87 -707.39 366.79 -708.24 366.72 C-710.43 366.45 -712.44 365.97 -714.56 365.44 C-717.21 365.24 -719.85 365.07 -722.5 364.94 C-729.97 364.57 -729.97 364.57 -732.85 363.93 C-738.23 362.95 -743.76 363.25 -749.21 363.25 C-751.4 363.25 -753.58 363.23 -755.76 363.21 C-767.25 363.17 -778.61 363.63 -789.56 367.44 C-792.21 367.98 -794.84 368.48 -797.5 368.94 C-802.64 369.83 -807.55 370.97 -812.56 372.44 C-816.9 372.93 -816.9 372.93 -819.1 371.3 C-823.49 365.71 -823.69 356.27 -824.32 349.35 C-824.67 346.57 -825.63 344.07 -826.56 341.44 C-827.75 336.9 -828.61 332.42 -829.06 327.75 C-829.43 324.06 -830.32 320.94 -831.56 317.44 C-832.94 312.21 -833.81 307.06 -834.22 301.68 C-834.51 299.33 -834.51 299.33 -835.47 296.77 C-836.86 292.52 -837.67 288.25 -838.5 283.88 C-839.85 276.97 -841.3 270.1 -842.91 263.25 C-844.35 257.05 -845.51 250.84 -846.5 244.56 C-847.33 239.47 -848.48 234.51 -849.77 229.52 C-851.75 221.83 -853.6 214.27 -854.32 206.35 C-854.67 203.57 -855.63 201.07 -856.56 198.44 C-857.75 193.9 -858.61 189.42 -859.06 184.75 C-859.43 181.06 -860.32 177.94 -861.56 174.44 C-862.94 169.21 -863.81 164.06 -864.22 158.68 C-864.51 156.33 -864.51 156.33 -865.47 153.77 C-866.86 149.52 -867.67 145.25 -868.5 140.88 C-869.85 133.97 -871.3 127.1 -872.91 120.25 C-874.35 114.05 -875.51 107.84 -876.5 101.56 C-877.35 96.33 -878.53 91.25 -879.88 86.13 C-880.53 83.58 -881.07 81.02 -881.56 78.44 C-881.79 77.3 -882.02 76.17 -882.25 75 C-881.56 71.44 -881.56 71.44 -879.89 69.94 C-877.18 68.27 -874.42 66.85 -871.56 65.44 C-870.25 64.77 -868.93 64.1 -867.62 63.43 C-864.27 61.73 -860.91 60.06 -857.54 58.41 C-856.19 57.75 -854.84 57.07 -853.5 56.38 C-849.62 54.39 -845.86 52.73 -841.69 51.44 C-837.93 50.24 -834.31 48.94 -830.69 47.38 C-825.55 45.26 -820.3 44.2 -814.86 43.15 C-811.65 42.46 -808.66 41.51 -805.56 40.44 C-799.23 38.63 -792.95 38.06 -786.38 37.68 C-783.49 37.54 -783.49 37.54 -780.56 36.44 C-765.27 34.59 -744.36 32.51 -729.56 37.44 C-726.47 37.71 -723.38 37.88 -720.28 38.06 C-711.94 38.91 -703.88 41.04 -695.81 43.25 C-694.85 43.51 -693.89 43.78 -692.9 44.05 C-677.2 48.42 -662.34 54.6 -647.56 61.44 C-647.56 62.1 -647.56 62.76 -647.56 63.44 C-646.91 63.51 -646.26 63.58 -645.59 63.65 C-641.35 64.75 -637.9 66.88 -634.12 69.06 C-627.58 72.78 -621.01 76.28 -614.25 79.59 C-609.81 81.79 -605.44 84.12 -601.06 86.44 C-593.28 90.55 -585.46 94.55 -577.56 98.44 C-577.56 99.1 -577.56 99.76 -577.56 100.44 C-576.46 100.61 -576.46 100.61 -575.33 100.78 C-572.46 101.46 -570.71 102.39 -568.25 104 C-563.29 107.08 -558.19 109.68 -552.96 112.25 C-549.29 114.06 -545.66 115.9 -542.07 117.84 C-541.33 118.24 -540.58 118.65 -539.82 119.06 C-538.4 119.83 -536.99 120.6 -535.59 121.38 C-530.73 124.01 -525.87 125.91 -520.56 127.44 C-519.86 127.64 -519.15 127.84 -518.43 128.05 C-512.04 129.69 -505.76 129.77 -499.19 129.75 C-498.13 129.77 -497.07 129.78 -495.98 129.8 C-474.33 129.81 -452.97 117.45 -434.64 106.82 C-428.65 103.39 -422.46 100.5 -416.21 97.6 C-412.19 95.73 -408.32 93.81 -404.56 91.44 C-399.3 88.11 -393.68 85.6 -388.04 82.98 C-381.53 79.95 -375.19 76.66 -368.91 73.18 C-363.88 70.44 -363.88 70.44 -360.56 70.44 C-360.56 69.78 -360.56 69.12 -360.56 68.44 C-359.88 68.18 -359.19 67.93 -358.49 67.66 C-355.12 66.25 -351.95 64.56 -348.75 62.81 C-343.48 59.97 -338.18 57.22 -332.81 54.56 C-326.74 51.56 -320.74 48.43 -314.75 45.25 C-287.19 30.7 -262.19 24.6 -231.56 33.25 C-222.15 36.45 -213.91 40.98 -205.81 46.69 C-204.88 47.34 -204.88 47.34 -203.93 48.01 C-202.43 49.1 -200.99 50.26 -199.56 51.44 C-199.56 52.1 -199.56 52.76 -199.56 53.44 C-198.9 53.44 -198.24 53.44 -197.56 53.44 C-197.56 54.1 -197.56 54.76 -197.56 55.44 C-196.57 55.77 -195.58 56.1 -194.56 56.44 C-194.56 57.1 -194.56 57.76 -194.56 58.44 C-193.9 58.44 -193.24 58.44 -192.56 58.44 C-192.56 59.1 -192.56 59.76 -192.56 60.44 C-191.9 60.44 -191.24 60.44 -190.56 60.44 C-179.68 74.2 -173.51 86.64 -175.56 104.44 C-177.15 111.78 -180.64 118.74 -185.56 124.44 C-186.22 124.44 -186.88 124.44 -187.56 124.44 C-187.56 125.1 -187.56 125.76 -187.56 126.44 C-188.96 127.58 -188.96 127.58 -190.93 128.83 C-191.65 129.29 -192.36 129.75 -193.1 130.22 C-193.87 130.7 -194.64 131.19 -195.44 131.69 C-196.22 132.18 -197 132.68 -197.8 133.19 C-202.59 136.23 -207.39 139.22 -212.28 142.09 C-213.96 143.08 -215.63 144.1 -217.28 145.13 C-218.18 145.68 -219.08 146.24 -220 146.81 C-220.8 147.32 -221.61 147.82 -222.43 148.34 C-224.56 149.44 -224.56 149.44 -227.56 149.44 C-227.56 150.1 -227.56 150.76 -227.56 151.44 C-228.6 152.02 -229.64 152.6 -230.71 153.2 C-232.12 153.98 -233.53 154.77 -234.94 155.56 C-236.03 156.17 -236.03 156.17 -237.15 156.8 C-242.02 159.54 -246.82 162.37 -251.55 165.34 C-253.56 166.43 -255.33 166.99 -257.56 167.44 C-257.56 168.1 -257.56 168.76 -257.56 169.44 C-258.83 170.05 -258.83 170.05 -260.12 170.68 C-261.21 171.22 -262.31 171.76 -263.44 172.31 C-264.53 172.85 -265.62 173.38 -266.74 173.93 C-269.6 175.28 -269.6 175.28 -271.56 177.44 C-272.55 177.44 -273.54 177.44 -274.56 177.44 C-274.56 178.1 -274.56 178.76 -274.56 179.44 C-275.24 179.8 -275.92 180.16 -276.62 180.54 C-284.12 184.59 -291.45 188.88 -298.69 193.38 C-303.73 196.51 -308.76 199.59 -314 202.38 C-318.34 204.69 -322.45 207.25 -326.56 209.94 C-331.52 213.18 -336.54 216.13 -341.78 218.91 C-347.17 221.87 -352.34 225.19 -357.56 228.44 C-363.56 232.12 -369.62 235.59 -375.82 238.92 C-379.41 240.91 -382.89 243.06 -386.37 245.24 C-388.46 246.38 -390.24 246.99 -392.56 247.44 C-392.56 248.1 -392.56 248.76 -392.56 249.44 C-394 250.28 -395.43 251.11 -396.88 251.94 C-397.68 252.4 -398.48 252.87 -399.3 253.34 C-401.56 254.44 -401.56 254.44 -404.56 254.44 C-404.56 255.1 -404.56 255.76 -404.56 256.44 C-409.75 259.34 -414.94 262.22 -420.13 265.09 C-421.66 265.94 -423.19 266.78 -424.71 267.63 C-431.65 271.48 -438.49 275.05 -446.05 277.58 C-448.45 278.4 -450.74 279.36 -453.06 280.38 C-460.93 283.57 -469.32 285.44 -477.56 287.44 C-478.33 287.63 -479.11 287.82 -479.9 288.01 C-484.56 289.1 -489.02 289.75 -493.81 290 C-498.38 290.23 -498.38 290.23 -502.88 290.94 C-505.9 291.5 -508.71 291.57 -511.78 291.57 C-512.96 291.57 -514.14 291.57 -515.36 291.57 C-516.58 291.57 -517.8 291.57 -519.06 291.56 C-520.29 291.57 -521.51 291.57 -522.77 291.57 C-523.95 291.57 -525.13 291.57 -526.34 291.57 C-527.42 291.57 -528.49 291.57 -529.6 291.57 C-532.37 291.45 -534.86 291.03 -537.56 290.44 C-539.67 290.31 -541.77 290.21 -543.88 290.12 C-551.46 289.63 -558.37 287.89 -565.67 285.93 C-568.41 285.22 -571.17 284.64 -573.94 284.06 C-580.89 282.6 -587.82 281.03 -594.75 279.44 C-596.39 279.06 -596.39 279.06 -598.06 278.68 C-604.95 277.1 -611.76 275.33 -618.56 273.44 C-626.11 271.45 -633.69 269.74 -641.34 268.18 C-644.5 267.45 -647.49 266.47 -650.56 265.44 C-652.12 265.09 -653.68 264.78 -655.25 264.5 C-658.81 263.82 -662.27 263 -665.75 262 C-671.47 260.39 -677.25 259.27 -683.08 258.18 C-686.56 257.44 -686.56 257.44 -689.54 256.44 C-693.02 255.29 -696.46 254.61 -700.06 253.94 C-704.73 253.06 -709.06 251.94 -713.56 250.44 C-716.06 249.9 -718.56 249.41 -721.06 248.94 C-725.73 248.06 -730.06 246.94 -734.56 245.44 C-737.06 244.9 -739.56 244.41 -742.06 243.94 C-745.67 243.26 -749.11 242.59 -752.59 241.41 C-755.9 240.33 -759.11 239.85 -762.56 239.44 C-764.96 248.69 -767.15 257.94 -768.95 267.33 C-769.42 269.72 -769.94 272.08 -770.56 274.44 C-764.65 277.02 -758.71 278.28 -752.38 279.35 C-748.28 280.05 -744.49 281.08 -740.56 282.44 C-738.23 282.78 -735.9 283.11 -733.56 283.44 C-730.27 284.3 -727.06 285.26 -723.85 286.41 C-719.43 287.79 -714.95 288.52 -710.4 289.29 C-706.55 289.97 -703.16 290.94 -699.56 292.44 C-697.58 292.69 -695.6 292.95 -693.61 293.16 C-689.46 293.72 -685.55 295.08 -681.62 296.5 C-678.6 297.43 -675.71 297.82 -672.57 298.16 C-668.44 298.73 -664.54 300.09 -660.62 301.5 C-657.6 302.43 -654.71 302.82 -651.57 303.16 C-647.51 303.72 -643.67 305.04 -639.82 306.41 C-636.26 307.53 -632.73 308.25 -629.06 308.94 C-624.39 309.81 -620.06 310.94 -615.56 312.44 C-613.07 312.97 -610.57 313.47 -608.06 313.94 C-604.47 314.61 -601.03 315.28 -597.57 316.44 C-592.85 318.01 -588 318.75 -583.12 319.66 C-580.05 320.33 -577.46 321.26 -574.56 322.44 C-572.47 322.81 -572.47 322.81 -570.38 322.94 C-566.32 323.32 -562.4 324 -558.41 324.84 C-557.47 325.04 -556.53 325.23 -555.56 325.44 C-554.55 325.68 -554.55 325.68 -553.53 325.92 C-546.75 327.45 -540.27 327.73 -533.34 327.7 C-532.21 327.71 -531.07 327.71 -529.89 327.71 C-527.5 327.71 -525.11 327.71 -522.71 327.7 C-519.07 327.69 -515.43 327.7 -511.79 327.71 C-509.46 327.71 -507.12 327.71 -504.78 327.7 C-503.7 327.71 -502.63 327.71 -501.52 327.72 C-495.75 327.68 -490.4 327.22 -484.76 325.94 C-482.53 325.43 -480.3 325.04 -478.04 324.69 C-467.36 323.02 -457.18 320.77 -446.95 317.25 C-445.18 316.65 -443.4 316.07 -441.62 315.5 C-436.36 313.81 -431.42 312.03 -426.55 309.43 C-424.31 308.31 -422.03 307.44 -419.69 306.56 C-415.18 304.8 -411.21 302.55 -407.1 299.99 C-404.61 298.47 -402.08 297.07 -399.5 295.69 C-391.73 291.49 -384.15 286.95 -376.56 282.44 C-375.62 281.88 -374.68 281.32 -373.71 280.74 C-367.95 277.31 -362.25 273.79 -356.54 270.27 C-355.56 269.66 -354.58 269.06 -353.56 268.44 C-352.67 267.86 -351.78 267.29 -350.86 266.7 C-348.56 265.44 -348.56 265.44 -345.56 265.44 C-345.56 264.78 -345.56 264.12 -345.56 263.44 C-344.3 262.82 -344.3 262.82 -343.01 262.2 C-341.91 261.66 -340.82 261.12 -339.69 260.56 C-338.6 260.03 -337.51 259.5 -336.38 258.95 C-333.52 257.59 -333.52 257.59 -331.56 255.44 C-330.57 255.44 -329.58 255.44 -328.56 255.44 C-328.56 254.78 -328.56 254.12 -328.56 253.44 C-327.35 252.86 -327.35 252.86 -326.11 252.27 C-324.51 251.48 -324.51 251.48 -322.88 250.69 C-321.82 250.18 -320.76 249.67 -319.68 249.14 C-316.65 247.49 -314.23 245.61 -311.56 243.44 C-309.86 242.44 -308.13 241.48 -306.38 240.56 C-299.53 236.9 -292.93 232.9 -286.32 228.82 C-278.94 224.29 -271.59 219.83 -263.93 215.76 C-260.78 214 -257.84 211.97 -254.86 209.93 C-252.42 208.35 -249.94 206.98 -247.38 205.62 C-242.96 203.28 -238.8 200.69 -234.62 197.94 C-229.33 194.45 -223.95 191.49 -218.18 188.82 C-215.48 187.5 -215.48 187.5 -213.11 185.46 C-210.33 183.25 -207.58 181.83 -204.38 180.31 C-200.14 178.35 -200.14 178.35 -196.56 175.44 C-195.57 175.44 -194.58 175.44 -193.56 175.44 C-193.56 174.78 -193.56 174.12 -193.56 173.44 C-192.84 173.05 -192.11 172.66 -191.37 172.27 C-185.07 168.91 -185.07 168.91 -179.06 165.06 C-176.56 163.44 -176.56 163.44 -173.56 163.44 C-173.56 162.78 -173.56 162.12 -173.56 161.44 C-170.37 159.12 -167.15 157.09 -163.56 155.44 C-163.56 154.78 -163.56 154.12 -163.56 153.44 C-161.19 150.81 -161.19 150.81 -158.56 148.44 C-157.9 148.44 -157.24 148.44 -156.56 148.44 C-156.34 147.92 -156.11 147.41 -155.88 146.88 C-154.56 144.44 -154.56 144.44 -152.25 141.31 C-149.1 136.92 -146.72 132.39 -144.56 127.44 C-144.09 126.41 -143.62 125.39 -143.14 124.33 C-139.47 114.87 -139.08 105.62 -139.06 95.56 C-139.06 94.56 -139.06 94.56 -139.05 93.53 C-139.03 85.45 -139.4 77.96 -142.56 70.44 C-142.89 70.11 -143.22 69.78 -143.56 69.44 C-144 67.12 -144 67.12 -143.56 64.44 C-139.18 61.08 -134.45 58.88 -129.44 56.62 C-124.32 54.28 -119.38 51.86 -114.56 48.94 C-109.22 45.72 -103.72 43.1 -98.07 40.49 C-91.9 37.64 -85.92 34.49 -79.95 31.26 C-75.53 28.88 -71.06 26.65 -66.56 24.44 C-62.01 22.19 -57.53 19.84 -53.06 17.44 C-50.57 16.1 -48.07 14.76 -45.56 13.44 C-44.48 12.86 -43.4 12.28 -42.28 11.69 C-39.56 10.44 -39.56 10.44 -36.56 10.44 C-36.56 9.78 -36.56 9.12 -36.56 8.44 C-34.24 7.45 -31.9 6.51 -29.55 5.59 C-27.67 4.86 -25.8 4.1 -23.95 3.28 C-16.03 0.22 -8.43 0.04 0 0 Z " fill="#000000" transform="translate(1150.5625,748.5625)"/>
<path d="M0 0 C2.13 3.51 2.56 5.78 2.7 9.81 C2.86 12.28 2.86 12.28 3.84 14.88 C5.24 19.11 6.04 23.37 6.88 27.75 C8.22 34.66 9.67 41.53 11.29 48.38 C12.72 54.57 13.88 60.79 14.88 67.06 C15.7 72.14 16.86 77.07 18.15 82.05 C20.19 90.17 21.79 98.4 23.4 106.62 C24.04 109.68 24.77 112.71 25.5 115.75 C26.56 120.27 27.28 124.66 27.7 129.28 C28.05 132.06 29 134.55 29.94 137.19 C31.31 142.41 32.19 147.56 32.59 152.95 C32.89 155.3 32.89 155.3 33.85 157.86 C35.24 162.1 36.04 166.37 36.88 170.75 C38.22 177.66 39.67 184.53 41.29 191.38 C42.72 197.57 43.88 203.79 44.88 210.06 C45.71 215.16 46.86 220.11 48.14 225.11 C50.13 232.8 51.98 240.36 52.7 248.28 C53.05 251.06 54 253.55 54.94 256.19 C56.13 260.72 56.99 265.21 57.44 269.88 C57.8 273.56 58.7 276.69 59.94 280.19 C61.31 285.41 62.19 290.56 62.59 295.95 C62.89 298.3 62.89 298.3 63.85 300.86 C65.24 305.1 66.04 309.37 66.88 313.75 C68.22 320.66 69.67 327.53 71.29 334.39 C72.07 337.75 72.74 341.14 73.41 344.53 C74.05 347.75 74.74 350.97 75.44 354.19 C76.3 358.2 77.15 362.22 77.94 366.25 C78.69 370.11 79.58 373.93 80.5 377.75 C81.56 382.27 82.28 386.66 82.7 391.28 C83.05 394.06 84 396.55 84.94 399.19 C86.33 404.48 87.13 409.69 87.65 415.13 C87.9 417.4 87.9 417.4 89 420.31 C90.11 423.72 90.08 426.63 89.94 430.19 C84.37 432.5 79.12 433.82 73.16 434.76 C70.97 434.97 70.97 434.97 69.94 436.19 C67.78 436.47 65.62 436.64 63.46 436.81 C60.86 437.12 60.86 437.12 58.17 438.13 C53.6 439.63 48.96 440.28 44.21 441.04 C39.94 441.75 36.06 442.81 31.94 444.19 C29.29 444.69 26.66 445.14 24 445.56 C16.95 446.73 10.18 448.37 3.29 450.28 C-0.3 451.25 -3.89 452.01 -7.54 452.69 C-10.55 453.28 -13.52 453.98 -16.5 454.69 C-21.4 455.83 -26.29 456.79 -31.25 457.66 C-35.5 458.46 -39.71 459.47 -43.92 460.46 C-63.47 464.98 -63.47 464.98 -67.06 463.19 C-68.96 458.69 -69.67 454.03 -70.5 449.25 C-71.09 446.02 -71.81 442.83 -72.56 439.62 C-74.3 432.22 -75.81 424.83 -77 417.31 C-77.83 412.22 -78.98 407.26 -80.27 402.27 C-82.25 394.58 -84.1 387.02 -84.82 379.1 C-85.17 376.32 -86.13 373.82 -87.06 371.19 C-88.25 366.65 -89.11 362.17 -89.56 357.5 C-89.93 353.81 -90.82 350.69 -92.06 347.19 C-93.44 341.96 -94.31 336.81 -94.72 331.43 C-95.01 329.08 -95.01 329.08 -95.97 326.52 C-97.36 322.27 -98.17 318 -99 313.62 C-100.35 306.72 -101.8 299.85 -103.41 293 C-104.85 286.8 -106.01 280.59 -107 274.31 C-107.83 269.22 -108.98 264.26 -110.27 259.27 C-112.25 251.58 -114.1 244.02 -114.82 236.1 C-115.17 233.32 -116.13 230.82 -117.06 228.19 C-118.25 223.65 -119.11 219.17 -119.56 214.5 C-119.93 210.81 -120.82 207.69 -122.06 204.19 C-123.44 198.96 -124.31 193.81 -124.72 188.43 C-125.01 186.08 -125.01 186.08 -125.97 183.52 C-127.36 179.27 -128.17 175 -129 170.62 C-130.35 163.72 -131.8 156.85 -133.41 150 C-134.85 143.8 -136.01 137.59 -137 131.31 C-137.83 126.22 -138.98 121.26 -140.27 116.27 C-142.25 108.58 -144.1 101.02 -144.82 93.1 C-145.17 90.32 -146.13 87.82 -147.06 85.19 C-148.25 80.65 -149.11 76.17 -149.56 71.5 C-149.93 67.81 -150.82 64.69 -152.06 61.19 C-153.45 55.9 -154.26 50.69 -154.77 45.25 C-155.03 42.95 -155.03 42.95 -156.19 39.94 C-157.18 36.83 -157.17 35.24 -156.06 32.19 C-153.06 30.18 -152.16 29.92 -148.75 29.69 C-146.04 29.5 -143.89 29.13 -141.3 28.25 C-136.73 26.75 -132.08 26.09 -127.34 25.33 C-123.07 24.62 -119.18 23.57 -115.06 22.19 C-112.42 21.69 -109.78 21.23 -107.12 20.81 C-100.08 19.64 -93.31 18.01 -86.42 16.09 C-82.83 15.12 -79.24 14.37 -75.59 13.69 C-72.54 13.08 -69.52 12.35 -66.5 11.62 C-62.04 10.58 -57.73 9.8 -53.16 9.5 C-50.92 9.23 -50.92 9.23 -48.3 8.25 C-44.62 7.04 -40.94 6.41 -37.12 5.81 C-31.36 4.85 -25.76 3.67 -20.12 2.12 C-18.91 1.79 -17.7 1.47 -16.45 1.12 C-14.32 0.54 -12.2 -0.07 -10.08 -0.69 C-3.88 -2.3 -3.88 -2.3 0 0 Z M-55.12 73.62 C-58.97 74.53 -62.69 75.35 -66.62 75.69 C-72.17 76.2 -77.85 77.21 -83.06 79.19 C-84.14 82.43 -83.99 83.4 -83.25 86.62 C-82.42 90.47 -81.69 94.3 -81.06 98.19 C-80.42 102.07 -79.78 105.95 -79.06 109.81 C-78.92 110.61 -78.77 111.41 -78.62 112.23 C-78.17 114.4 -78.17 114.4 -76.06 116.19 C-73.62 116.28 -73.62 116.28 -70.88 115.94 C-69.95 115.85 -69.03 115.76 -68.08 115.67 C-64.99 115.24 -64.99 115.24 -61.76 114.24 C-57.57 113.05 -53.41 112.28 -49.12 111.56 C-48.35 111.43 -47.57 111.29 -46.76 111.16 C-44.86 110.83 -42.96 110.51 -41.06 110.19 C-38.5 102.41 -42.35 92.74 -44.33 85.1 C-45.4 80.83 -46.25 76.52 -47.06 72.19 C-49.88 72.19 -52.39 72.96 -55.12 73.62 Z " fill="#000000" transform="translate(216.0625,756.8125)"/>
<path d="M0 0 C0.65 -0 1.31 -0 1.98 -0 C4.19 -0.01 6.39 -0.01 8.6 -0 C10.17 -0 11.75 -0.01 13.32 -0.01 C17.61 -0.01 21.9 -0.01 26.19 -0.01 C30.67 -0 35.15 -0.01 39.62 -0.01 C47.15 -0.01 54.67 -0.01 62.19 -0 C70.9 0 79.61 0 88.32 -0.01 C95.79 -0.01 103.25 -0.01 110.71 -0.01 C115.18 -0.01 119.64 -0.01 124.11 -0.01 C128.3 -0.01 132.5 -0.01 136.69 -0 C138.24 -0 139.78 -0 141.33 -0.01 C143.43 -0.01 145.53 -0.01 147.62 0 C149.39 0 149.39 0 151.19 0 C153.81 0.13 153.81 0.13 154.81 1.13 C154.91 4.07 154.95 6.99 154.95 9.94 C154.95 10.82 154.95 11.71 154.95 12.62 C154.95 14.49 154.95 16.36 154.94 18.24 C154.94 21.11 154.94 23.99 154.95 26.87 C154.95 28.68 154.95 30.5 154.95 32.31 C154.95 33.18 154.95 34.05 154.95 34.94 C154.93 41.01 154.93 41.01 153.81 42.13 C151.75 42.23 149.69 42.25 147.62 42.25 C146.64 42.26 146.64 42.26 145.64 42.26 C143.44 42.26 141.23 42.26 139.03 42.26 C137.45 42.26 135.88 42.26 134.3 42.26 C130.01 42.27 125.72 42.26 121.44 42.26 C116.96 42.26 112.48 42.26 108 42.26 C100.48 42.26 92.95 42.26 85.43 42.26 C76.72 42.25 68.01 42.25 59.3 42.26 C51.84 42.26 44.38 42.26 36.91 42.26 C32.45 42.26 27.98 42.26 23.52 42.26 C19.32 42.27 15.13 42.26 10.93 42.26 C9.39 42.26 7.84 42.26 6.3 42.26 C4.2 42.26 2.1 42.26 0 42.25 C-1.77 42.25 -1.77 42.25 -3.57 42.25 C-6.19 42.13 -6.19 42.13 -7.19 41.13 C-7.29 38.18 -7.33 35.26 -7.32 32.31 C-7.32 31.43 -7.32 30.55 -7.32 29.64 C-7.32 27.76 -7.32 25.89 -7.32 24.02 C-7.31 21.14 -7.32 18.26 -7.32 15.38 C-7.32 13.57 -7.32 11.75 -7.32 9.94 C-7.32 9.07 -7.32 8.21 -7.33 7.31 C-7.3 0.11 -7.1 0 0 0 Z " fill="#000000" transform="translate(46.187744140625,338.8730163574219)"/>
</svg>
